<svg width="70" height="186" viewBox="0 0 70 186" fill="none" xmlns="http://www.w3.org/2000/svg">
<g clip-path="url(#clip0_2051_1282)">
<path d="M31.6405 186C32.0207 172.032 32.3058 159.335 32.5054 147.265C34.2257 148.204 35.9935 149.049 37.8279 149.827C38.2175 149.988 38.6072 150.159 39.0159 150.301C40.7837 151.003 42.5991 151.63 44.4714 152.161C44.9562 152.303 45.4409 152.436 45.9446 152.56C47.6079 152.987 49.3282 153.366 51.0675 153.66C51.6853 153.765 52.3031 153.869 52.9209 153.955C58.2719 154.733 63.965 154.894 70.0098 154.382C63.946 154.448 58.2528 153.907 52.9494 152.816C53.225 146.192 53.3201 139.189 53.1775 131.835C53.0254 123.949 52.6072 116.472 52.0084 109.44C51.4097 116.396 50.982 123.807 50.8299 131.617C50.6778 138.905 50.7824 145.841 51.0485 152.398C49.2997 152 47.6174 151.535 45.9731 151.013C46.7525 103.282 46.4959 121.359 45.2128 73.7984C43.9392 121.198 43.6826 102.95 44.4524 150.52C42.5896 149.884 40.7837 149.172 39.0444 148.375C39.7573 96.5158 39.8048 110.456 39.206 58.5491V58.5111L41.4395 32.1308C42.1143 29.0658 44.519 26.665 47.6079 25.9913L61.4368 22.9831L47.6079 19.9655C44.519 19.3013 42.1143 16.9005 41.4395 13.8165L38.4266 0.00952148L35.4137 13.8165C34.7484 16.9005 32.3343 19.3013 29.2549 19.9655L15.426 22.9831L29.2549 25.9913C32.3343 26.665 34.7484 29.0658 35.4137 32.1308L37.6473 58.4447V58.5776C37.0675 110.285 37.115 96.1268 37.7993 147.796C35.9745 146.933 34.2257 145.974 32.5434 144.93C33.1422 106.869 32.8285 118.142 31.6405 73.8079C30.4619 117.686 30.1483 106.233 30.7186 143.782C29.0933 142.719 27.5441 141.562 26.0519 140.347C26.0899 136.646 26.0614 132.85 25.9664 128.95C25.7858 122.146 25.3961 115.637 24.8543 109.45C24.3316 115.229 23.9514 121.302 23.7613 127.65C23.6568 131.285 23.6188 134.824 23.6378 138.269C8.87742 124.756 1.43547 103.804 2.20532 79.5205C2.63302 69.9458 4.3058 60.2951 7.13811 51.1095C7.91748 48.3386 9.35264 44.7327 10.2936 41.9428C4.743 53.6241 1.10281 66.3588 0.199892 79.4161C-1.44437 104.895 7.06208 127.641 23.6568 141.286C23.7613 154.42 24.1605 168.189 24.8448 186C25.5006 169.005 25.8903 155.71 26.0234 143.118C27.5346 144.247 29.1218 145.291 30.7566 146.268C30.9562 158.633 31.2508 171.652 31.6405 186ZM36.4877 23.6189L33.5604 22.9831L36.4877 22.3379C37.1435 22.205 37.6378 21.6926 37.7898 21.0378L38.4266 18.1246L39.0634 21.0378C39.206 21.6926 39.7097 22.1955 40.3655 22.3379L43.2929 22.9831L40.3655 23.6189C39.7097 23.7518 39.2155 24.2642 39.0634 24.919L38.5977 27.073L38.4361 27.8227L38.2651 27.073L37.7993 24.919C37.6568 24.2642 37.153 23.7613 36.4972 23.6189H36.4877Z" fill="white"/>
<path d="M52.7874 160.341C52.2551 160.256 51.7324 160.18 51.2097 160.085C49.4038 159.781 47.617 159.401 45.8397 158.946C45.4215 158.842 45.0128 158.737 44.5946 158.623C42.6842 158.111 40.7833 157.523 38.9205 156.858C38.5783 156.726 38.2456 156.612 37.913 156.479C37.6944 156.412 37.4853 156.327 37.2762 156.242C35.784 155.71 34.3108 155.084 32.8281 154.467C34.4819 155.463 36.1737 156.374 37.932 157.181C38.0746 166.803 38.2361 176.397 38.4262 185.991C38.6163 176.549 38.7684 167.088 38.9109 157.617C40.7738 158.434 42.6747 159.136 44.6136 159.724C44.7752 168.492 44.9843 177.241 45.2219 185.991C45.4595 177.365 45.6496 168.729 45.8112 160.085C47.598 160.578 49.4038 160.986 51.2382 161.309C51.4378 169.546 51.6849 177.773 52.008 186C52.3312 177.849 52.5783 169.697 52.7684 161.546C58.49 162.353 64.3448 162.248 70.0094 161.166C64.2592 161.489 58.4805 161.223 52.7969 160.35L52.7874 160.341Z" fill="white"/>
<path d="M16.1669 32.8236C16.1098 32.055 15.9293 31.4287 15.7677 30.9922C15.3495 31.1155 14.7887 31.3148 14.1995 31.6754C13.5912 32.036 13.1445 32.4441 12.8403 32.7667C13.9238 33.3171 15.0073 33.8674 16.0908 34.4178C16.1669 34.0098 16.2239 33.4689 16.1764 32.8331L16.1669 32.8236Z" fill="white"/>
<path d="M13.8858 38.8396C15.3875 37.3593 15.8247 35.6607 15.9672 34.968L12.4126 33.165C11.9279 33.7059 10.6543 35.2432 10.4547 37.5681C10.3406 38.9061 10.6258 39.9973 10.8539 40.6521C11.5192 40.4433 12.7452 39.9594 13.8858 38.8396ZM12.6597 34.3607L14.8457 35.4709C14.5986 36.2396 14.1234 37.2549 13.211 38.1659C12.6407 38.7258 12.0324 39.1148 11.4907 39.3805C11.3861 38.8112 11.3481 38.2323 11.3956 37.6535C11.5192 36.2111 12.1275 35.0914 12.6597 34.3607Z" fill="white"/>
<path d="M10.0273 39.6559C9.97977 39.5231 9.91324 39.2858 9.88472 38.9822C9.78968 38.1661 9.98927 37.3215 9.98927 37.3215C9.98927 37.3215 9.09586 37.9478 8.52559 38.6785C8.30699 38.9632 8.02186 39.3997 7.82227 40.0545C8.08839 39.9216 8.47807 39.7603 8.9723 39.6844C9.39049 39.6179 9.76117 39.6274 10.0273 39.6464V39.6559Z" fill="white"/>
<path d="M12.1562 40.7377C12.3368 40.937 12.5554 41.2311 12.755 41.6107C12.9831 42.0567 13.0782 42.4647 13.1352 42.7589C13.5439 42.2085 13.734 41.7246 13.8385 41.383C14.0952 40.5005 14.0761 39.4092 14.0761 39.4092C14.0761 39.4092 13.5154 40.0639 12.793 40.472C12.5269 40.6238 12.2988 40.7092 12.1658 40.7472L12.1562 40.7377Z" fill="white"/>
</g>
<defs>
<clipPath id="clip0_2051_1282">
<rect width="70" height="186" fill="white"/>
</clipPath>
</defs>
</svg>
