<svg width="51" height="48" viewBox="0 0 51 48" fill="none" xmlns="http://www.w3.org/2000/svg">
<path d="M8.85859 8.87558C7.00078 10.7334 5.7377 13.0217 5.16563 15.5195H6.1002C7.16504 11.2545 10.3539 7.82207 14.483 6.41738V5.46016C12.3816 6.11719 10.4615 7.27266 8.85859 8.87558Z" fill="white"/>
<path d="M50.7387 25.6072C50.7387 32.0416 45.5221 37.2639 39.0877 37.2695H29.8383V34.7773H39.0877C41.5346 34.7773 43.8342 33.8201 45.5617 32.0926C47.2949 30.3594 48.2465 28.0598 48.2465 25.6072C48.2465 23.1604 47.2949 20.8551 45.5617 19.1275C43.8285 17.4 41.5232 16.4428 39.0764 16.4428C38.425 16.4428 37.785 16.5107 37.1619 16.641C36.3123 16.8223 35.4967 17.1168 34.7377 17.5303C34.6811 16.658 34.5508 15.7914 34.3525 14.9475V14.9418C34.1486 14.0582 33.8654 13.1973 33.5086 12.3533C32.693 10.4332 31.5318 8.70566 30.0479 7.22168C28.5639 5.7377 26.842 4.57656 24.9162 3.76094C22.9281 2.92266 20.8154 2.49219 18.6348 2.49219C16.4541 2.49219 14.3414 2.91699 12.3533 3.76094C10.4332 4.5709 8.70567 5.7377 7.22168 7.22168C5.7377 8.70566 4.57656 10.4332 3.76094 12.3533C2.91699 14.3414 2.49219 16.4541 2.49219 18.6348C2.49219 20.8154 2.91699 22.9281 3.76094 24.9162C4.5709 26.8363 5.7377 28.5639 7.22168 30.0479C8.70567 31.5318 10.4332 32.693 12.3533 33.5086C14.3414 34.3469 16.4541 34.7773 18.6348 34.7773H20.8834V37.2695H18.5611C8.30351 37.2299 0 28.9037 0 18.6348C0 8.34316 8.34317 0 18.6348 0C27.3914 0 34.7377 6.03789 36.7314 14.1771V14.1828C37.4904 14.0299 38.2721 13.9449 39.0764 13.9449C45.5164 13.9506 50.7387 19.1672 50.7387 25.6072Z" fill="white"/>
<path d="M35.6156 31.0051H34.3355L25.8111 22.4807V47.9463H24.9049V22.492L16.3861 31.0051H15.1061L25.358 20.7531L35.6156 31.0051Z" fill="white"/>
</svg>
