<svg width="33" height="48" viewBox="0 0 33 48" fill="none" xmlns="http://www.w3.org/2000/svg">
<path d="M15.7783 12.519C15.7783 12.6589 15.8339 12.793 15.9328 12.8919C16.0317 12.9908 16.1658 13.0464 16.3057 13.0464C16.4455 13.0464 16.5797 12.9908 16.6786 12.8919C16.7774 12.793 16.833 12.6589 16.833 12.519C16.833 12.3792 16.7774 12.2451 16.6786 12.1462C16.5797 12.0473 16.4455 11.9917 16.3057 11.9917C16.1658 11.9917 16.0317 12.0473 15.9328 12.1462C15.8339 12.2451 15.7783 12.3792 15.7783 12.519Z" fill="white" fill-opacity="0.63"/>
<path d="M10.415 35.8962C10.5258 35.8593 10.6313 35.8224 10.742 35.7908C10.6365 35.8224 10.5258 35.8593 10.415 35.8962ZM10.415 35.8962C10.5258 35.8593 10.6313 35.8224 10.742 35.7908C10.6365 35.8224 10.5258 35.8593 10.415 35.8962Z" fill="white"/>
<path d="M16.2947 10.1672C17.5814 10.1672 18.6256 11.2114 18.6256 12.4981C18.6256 13.7848 17.5814 14.829 16.2947 14.829C15.008 14.829 13.9639 13.7848 13.9639 12.4981C13.9639 11.2114 15.0133 10.1672 16.2947 10.1672ZM16.2947 9.11255C14.4227 9.11255 12.9092 10.626 12.9092 12.4981C12.9092 14.3702 14.4227 15.8836 16.2947 15.8836C18.1668 15.8836 19.6803 14.3702 19.6803 12.4981C19.6803 10.626 18.1668 9.11255 16.2947 9.11255Z" fill="white" fill-opacity="0.63"/>
<path d="M27.8385 24.5584C27.8596 24.0996 27.8701 23.6408 27.8701 23.1768C27.8701 13.7057 23.3297 5.29453 16.3055 0C9.28652 5.29453 4.74609 13.7057 4.74609 23.1768C4.74609 23.6408 4.75664 24.0996 4.77773 24.5531C1.82461 27.5063 0 31.5826 0 36.0861C0 39.3398 0.949218 42.3668 2.58926 44.9086C4.18711 42.2824 6.52852 40.1572 9.32344 38.8283C11.3801 37.8475 13.6846 37.299 16.1156 37.299C18.6627 37.299 21.0674 37.9002 23.1979 38.9707C25.9664 40.3576 28.2762 42.5408 29.8213 45.2145C31.5826 42.6094 32.6109 39.4717 32.6109 36.0861C32.6109 31.5826 30.7863 27.5115 27.8385 24.5584ZM7.82051 16.8539C8.30566 14.8553 9.02813 12.9146 9.96152 11.0795C10.882 9.27079 12.0073 7.5739 13.3154 6.02227C14.233 4.93594 15.235 3.91816 16.3107 2.99004C17.3865 3.91816 18.3885 4.93594 19.3061 6.02227C20.6139 7.57793 21.7424 9.28125 22.66 11.0795C23.5934 12.9146 24.3158 14.8553 24.801 16.8539C25.2598 18.7418 25.5129 20.6877 25.5498 22.6494C22.9184 20.8406 19.7332 19.7807 16.3055 19.7807C12.8777 19.7807 9.69785 20.8406 7.07168 22.6494C7.10859 20.6877 7.36172 18.7418 7.82051 16.8539ZM3.04277 40.5422C2.56289 39.1184 2.32031 37.6154 2.32031 36.0914C2.32031 34.2035 2.68945 32.3684 3.41719 30.6492C3.86016 29.6051 4.41914 28.6242 5.09941 27.7225C5.61094 30.9656 6.65508 34.0348 8.14746 36.8244C6.22793 37.7631 4.50879 39.0182 3.04277 40.5422ZM22.2486 36.0439C22.2117 36.0281 22.1695 36.0176 22.1326 36.0018C22.1115 35.9912 22.0852 35.9859 22.0641 35.9754C22.0324 35.9648 21.9955 35.949 21.9639 35.9385C21.9217 35.9227 21.8848 35.9121 21.8426 35.8963C21.8004 35.8805 21.7635 35.8699 21.7213 35.8594L21.6738 35.8436C21.6211 35.8277 21.5631 35.8066 21.5104 35.7908C21.4471 35.7697 21.3838 35.7539 21.3258 35.7328L21.1676 35.6854C21.157 35.6801 21.1465 35.6801 21.1307 35.6748C21.0727 35.659 21.0094 35.6379 20.9514 35.6221C20.8881 35.6063 20.8248 35.5904 20.7668 35.5746L20.3871 35.4797C20.3344 35.4639 20.2764 35.4533 20.2236 35.4428C20.1604 35.427 20.0971 35.4164 20.0338 35.4006C19.9652 35.3848 19.902 35.3689 19.8334 35.3584H19.8176C19.7701 35.3479 19.7174 35.3373 19.6699 35.3268C19.6488 35.3215 19.633 35.3215 19.6119 35.3162C19.5539 35.3057 19.4959 35.2951 19.4326 35.2846C19.3693 35.274 19.3061 35.2635 19.2428 35.2477L18.958 35.2002C18.9105 35.1949 18.8578 35.1844 18.8104 35.1791C18.7682 35.1738 18.726 35.1633 18.6785 35.158C18.5414 35.1369 18.4096 35.1211 18.2725 35.1053C18.2092 35.1 18.1512 35.0895 18.0879 35.0842H18.0668C18.0193 35.0789 17.9719 35.0736 17.9191 35.0684C17.8611 35.0631 17.8084 35.0578 17.7504 35.0525C17.6607 35.042 17.5711 35.0367 17.4814 35.0314C17.4393 35.0262 17.4023 35.0262 17.3602 35.0209C17.3127 35.0156 17.26 35.0156 17.2125 35.0104C17.1914 35.0104 17.1703 35.0103 17.1492 35.0051C17.0912 34.9998 17.0385 34.9998 16.9805 34.9945C16.9541 34.9945 16.9277 34.9893 16.9014 34.9893C16.8328 34.984 16.7643 34.984 16.6957 34.984C16.6535 34.984 16.6166 34.9787 16.5744 34.9787C16.5111 34.9787 16.4479 34.9787 16.3898 34.9734H15.6568C15.5355 34.9734 15.4143 34.9787 15.293 34.984C15.2455 34.984 15.1928 34.9893 15.1453 34.9893C15.1031 34.9893 15.0662 34.9945 15.024 34.9945C14.9502 34.9998 14.8764 35.0051 14.8078 35.0104C14.734 35.0156 14.6654 35.0209 14.5916 35.0262C14.5178 35.0314 14.4492 35.0367 14.3754 35.0473C14.3437 35.0473 14.3121 35.0525 14.2805 35.0578L13.8691 35.1053C13.8111 35.1105 13.7584 35.1211 13.7004 35.1264C13.6477 35.1316 13.5896 35.1422 13.5369 35.1475C13.3682 35.1738 13.1994 35.1949 13.0359 35.2266C12.999 35.2318 12.9621 35.2371 12.9252 35.2477C12.8777 35.2529 12.8355 35.2635 12.7881 35.274C12.7301 35.2846 12.6668 35.2951 12.6088 35.3057C12.5613 35.3162 12.5191 35.3215 12.4717 35.332C12.4506 35.3373 12.4295 35.3373 12.4137 35.3426C12.3768 35.3479 12.3398 35.3584 12.3029 35.3637C12.2396 35.3795 12.1764 35.39 12.1131 35.4059C12.0498 35.4217 11.9865 35.4322 11.9232 35.448C11.9127 35.448 11.9021 35.4533 11.8916 35.4533C11.8652 35.4586 11.8389 35.4639 11.8125 35.4744C11.7545 35.4902 11.6912 35.5061 11.6279 35.5219C11.5594 35.5377 11.4961 35.5535 11.4275 35.5746C11.4064 35.5799 11.3801 35.5852 11.3537 35.5957C11.2852 35.6168 11.2113 35.6326 11.1428 35.6537C11.0637 35.6748 10.9846 35.7012 10.9002 35.7223C10.8475 35.7381 10.7895 35.7539 10.7367 35.775C10.626 35.8066 10.5205 35.8436 10.4098 35.8805C10.3729 35.891 10.3359 35.9068 10.299 35.9174C9.50801 34.4672 8.8541 32.9432 8.34785 31.3717C7.73086 29.468 7.33535 27.4904 7.16133 25.4865C7.12969 25.1332 7.10859 24.7852 7.09277 24.4318C7.0875 24.3686 7.0875 24.3053 7.0875 24.242C7.08223 24.1787 7.08223 24.1154 7.08223 24.0522C7.08223 23.9889 7.07695 23.9256 7.07695 23.8623C7.07695 23.799 7.07168 23.7357 7.07168 23.6672C8.06309 22.9289 9.13887 22.3066 10.2885 21.8215C12.1922 21.0147 14.2172 20.6086 16.3055 20.6086C18.3938 20.6086 20.4187 21.0199 22.3225 21.8215C23.4721 22.3066 24.5479 22.9236 25.5393 23.6672V23.6725C25.5393 23.7252 25.5393 23.7727 25.534 23.8254C25.534 23.8992 25.5287 23.973 25.5287 24.0522C25.5287 24.0891 25.5287 24.1207 25.5234 24.1576C25.5182 24.2525 25.5182 24.3422 25.5129 24.4371C25.4971 24.7904 25.4707 25.1385 25.4443 25.4918C25.2703 27.5221 24.8643 29.526 24.2314 31.4508C23.7199 33.0486 23.0555 34.5832 22.2486 36.0439ZM29.4627 40.8375C28.0125 39.2595 26.2929 37.9524 24.3844 36.9773C25.9189 34.1455 26.9947 31.0289 27.5168 27.7225C28.1918 28.6242 28.7508 29.5998 29.1938 30.6492C29.9215 32.3736 30.2906 34.2035 30.2906 36.0914C30.2906 37.7262 30.0111 39.324 29.4627 40.8375Z" fill="white"/>
<path d="M16.3055 39.8408C16.7643 39.8408 17.608 41.0484 17.608 43.026C17.608 45.0035 16.7643 46.2111 16.3055 46.2111C15.8467 46.2111 15.0029 45.0035 15.0029 43.026C15.0029 41.0484 15.8467 39.8408 16.3055 39.8408ZM16.3055 38.7861C15.0029 38.7861 13.9482 40.6846 13.9482 43.026C13.9482 45.3674 15.0029 47.2658 16.3055 47.2658C17.608 47.2658 18.6627 45.3674 18.6627 43.026C18.6627 40.6846 17.608 38.7861 16.3055 38.7861Z" fill="white" fill-opacity="0.63"/>
</svg>
