<svg width="50" height="50" viewBox="0 0 50 50" fill="none" xmlns="http://www.w3.org/2000/svg">
<path d="M43.4235 8.20488C43.2231 7.98223 43.0172 7.76514 42.8112 7.55361C39.8165 4.46982 36.0258 2.15977 31.7786 0.946289C30.9381 0.706934 30.0809 0.512109 29.2069 0.361816C27.8153 0.122461 26.3903 0 24.9375 0C17.9238 0 11.5837 2.89453 7.05264 7.55918C6.84668 7.7707 6.64072 7.98779 6.44033 8.21045C2.43809 12.6302 0 18.5027 0 24.9375C0 31.3723 2.43809 37.2337 6.43477 41.659C6.63516 41.8816 6.83555 42.0987 7.04707 42.3103C10.0474 45.3996 13.8437 47.7152 18.102 48.9287C18.9425 49.1681 19.7997 49.3629 20.6736 49.5132C22.0597 49.7525 23.4847 49.875 24.9375 49.875C26.3903 49.875 27.8153 49.7525 29.2069 49.5132C30.0809 49.3629 30.9381 49.1681 31.7786 48.9287C36.0369 47.7208 39.8276 45.4052 42.8279 42.3158C43.0339 42.0987 43.2398 41.8872 43.4402 41.6646C47.4369 37.2393 49.875 31.3723 49.875 24.9375C49.875 18.4972 47.4313 12.6302 43.4235 8.20488ZM47.4202 25.3939C47.3646 28.2718 46.7745 31.0605 45.6612 33.6935C44.6927 35.9868 43.3623 38.0798 41.7035 39.9278C41.5087 40.1505 41.3027 40.3676 41.0968 40.5791C41.0133 40.6682 40.9242 40.7517 40.8407 40.8407C38.7756 42.9059 36.3709 44.5312 33.6935 45.6612C31.7007 46.5018 29.6244 47.0473 27.4813 47.2866C26.7855 47.3646 26.0897 47.4091 25.3828 47.4202C25.2381 47.4258 25.0878 47.4258 24.9375 47.4258C24.7872 47.4258 24.6425 47.4258 24.4922 47.4202C23.7908 47.4091 23.0895 47.3646 22.3937 47.2866C20.2562 47.0473 18.1743 46.5018 16.1815 45.6612C13.5041 44.5257 11.0994 42.9059 9.03428 40.8407C8.94522 40.7517 8.85615 40.6626 8.77266 40.5735C8.5667 40.362 8.36074 40.1394 8.16592 39.9223C6.50713 38.0742 5.18232 35.9812 4.21377 33.6935C3.10049 31.0605 2.51045 28.2718 2.45479 25.3939H8.53887C8.53887 25.2437 8.5333 25.0934 8.5333 24.9375C8.5333 24.7928 8.5333 24.648 8.53887 24.5033H2.45479C2.51045 21.6199 3.10049 18.8256 4.21934 16.1871C5.18789 13.8937 6.51826 11.7952 8.18262 9.94717C8.37744 9.72451 8.5834 9.50742 8.78936 9.2959C8.87285 9.2124 8.95635 9.12334 9.03984 9.03984C11.105 6.97471 13.5097 5.34932 16.1871 4.21934C18.1799 3.37881 20.2562 2.8333 22.3992 2.59395C23.095 2.51602 23.7908 2.47148 24.4978 2.45479C24.648 2.44922 24.7928 2.44922 24.9431 2.44922C25.0934 2.44922 25.2381 2.44922 25.3884 2.45479C26.0953 2.46592 26.7911 2.51602 27.4869 2.59395C29.6244 2.8333 31.7062 3.37881 33.6935 4.21934C36.3709 5.34932 38.7756 6.97471 40.8407 9.03984C40.9242 9.12334 41.0077 9.20684 41.0856 9.29033C41.2916 9.50185 41.4976 9.71895 41.6924 9.9416C43.3567 11.7952 44.6871 13.8882 45.6612 16.1871C46.7745 18.8256 47.3701 21.6199 47.4202 24.5033H41.3361C41.3361 24.648 41.3417 24.7928 41.3417 24.9375C41.3417 25.0878 41.3417 25.2381 41.3361 25.3939H47.4202Z" fill="white"/>
<path d="M40.4511 24.9375C40.4511 25.0878 40.4511 25.2381 40.4455 25.3939H25.3828V33.4485C25.2325 33.443 25.0822 33.443 24.9319 33.443C24.7872 33.443 24.6369 33.443 24.4922 33.4485V25.3939H9.42949C9.42392 25.2437 9.42393 25.0934 9.42393 24.9375C9.42393 24.7928 9.42392 24.648 9.42949 24.5033H24.4922V16.4098C24.6369 16.4098 24.7872 16.4153 24.9319 16.4153C25.0822 16.4153 25.2325 16.4153 25.3828 16.4098V24.5033H40.4455C40.4455 24.648 40.4511 24.7928 40.4511 24.9375ZM25.3828 2.62178V15.5136C25.2325 15.5191 25.0822 15.5191 24.9319 15.5191C24.7872 15.5191 24.6369 15.5191 24.4922 15.5136V2.62178C24.6425 2.56055 24.7872 2.50488 24.9375 2.44922C25.0878 2.50488 25.2325 2.56611 25.3828 2.62178ZM25.3828 34.3392V47.2532C25.2325 47.3145 25.0878 47.3701 24.9375 47.4258C24.7872 47.3701 24.6425 47.3089 24.4922 47.2532V34.3392C24.6369 34.3336 24.7872 34.3336 24.9319 34.3336C25.0822 34.3336 25.2325 34.3336 25.3828 34.3392Z" fill="white"/>
<path d="M38.1132 37.2114C40.0948 33.7102 41.2582 29.6856 41.3306 25.3939C41.3306 25.2437 41.3361 25.0934 41.3361 24.9375C41.3361 24.7928 41.3361 24.648 41.3306 24.5033C41.2582 20.2005 40.0948 16.1593 38.1021 12.6524C39.3823 11.8564 40.5791 10.9491 41.6868 9.9416C41.4864 9.71895 41.286 9.50185 41.0801 9.29033C40.0113 10.2645 38.8646 11.1328 37.6456 11.8898C35.202 7.91543 31.6729 4.68135 27.4702 2.59395C26.7744 2.51602 26.0786 2.47148 25.3717 2.45479C25.2214 2.44922 25.0767 2.44922 24.9264 2.44922C25.0767 2.50488 25.2214 2.56611 25.3717 2.62178C25.4997 2.67188 25.6222 2.72754 25.7502 2.77764C28.6113 3.99111 31.183 5.72227 33.3929 7.93213C34.7344 9.27363 35.8978 10.7487 36.883 12.3407C36.048 12.8194 35.1797 13.2536 34.2835 13.6321C31.4558 14.8289 28.461 15.4635 25.3772 15.5191C25.227 15.5247 25.0767 15.5247 24.9264 15.5247C24.7816 15.5247 24.6313 15.5247 24.4866 15.5191C21.3973 15.4635 18.397 14.8289 15.5637 13.6321C14.673 13.2536 13.8047 12.825 12.9697 12.3463C13.9494 10.7543 15.1184 9.27363 16.4599 7.93213C18.6697 5.72227 21.2414 3.99111 24.1025 2.77764C24.2306 2.72754 24.353 2.67188 24.4811 2.62178C24.6313 2.56055 24.7761 2.50488 24.9264 2.44922C24.7761 2.44922 24.6313 2.44922 24.4811 2.45479C23.7741 2.46592 23.0783 2.51602 22.3825 2.59395C18.1799 4.68135 14.6508 7.91543 12.2071 11.8954C10.9881 11.1384 9.84141 10.27 8.77266 9.2959C8.5667 9.50742 8.36074 9.73008 8.16592 9.94717C9.27363 10.9547 10.476 11.862 11.7563 12.658C9.76904 16.1648 8.60566 20.2005 8.5333 24.5033C8.5333 24.648 8.52773 24.7928 8.52773 24.9375C8.52773 25.0878 8.52773 25.2381 8.5333 25.3939C8.61123 29.6801 9.76904 33.7046 11.7507 37.2059C10.4704 38.0019 9.26807 38.9147 8.16035 39.9223C8.35518 40.1449 8.56113 40.362 8.76709 40.5735C9.83584 39.5994 10.9825 38.7311 12.2016 37.9685C14.6452 41.954 18.1799 45.1937 22.3881 47.2866C23.0839 47.3646 23.7797 47.4091 24.4866 47.4202C24.6369 47.4258 24.7816 47.4258 24.9319 47.4258C24.7816 47.3701 24.6369 47.3089 24.4866 47.2532C24.3586 47.2031 24.2361 47.1475 24.1081 47.0974C21.247 45.8839 18.6753 44.1527 16.4654 41.9429C15.1184 40.5958 13.9494 39.1151 12.9697 37.5176C13.8047 37.0389 14.673 36.6047 15.5692 36.2262C18.397 35.0294 21.3973 34.3948 24.4922 34.3392C24.6369 34.3336 24.7872 34.3336 24.9319 34.3336C25.0822 34.3336 25.2325 34.3336 25.3828 34.3392C28.4722 34.3948 31.4669 35.0294 34.2891 36.2262C35.1908 36.6047 36.0592 37.0389 36.8997 37.5231C35.92 39.1207 34.7511 40.6014 33.404 41.9484C31.1941 44.1583 28.6225 45.8895 25.7613 47.1029C25.6333 47.1586 25.5108 47.2087 25.3828 47.2588C25.2325 47.32 25.0878 47.3757 24.9375 47.4313C25.0878 47.4313 25.2325 47.4313 25.3828 47.4258C26.0897 47.4146 26.7855 47.3701 27.4813 47.2922C31.6896 45.2048 35.2187 41.9651 37.6623 37.9796C38.8758 38.7366 40.028 39.6105 41.0968 40.5847C41.3027 40.3731 41.5031 40.1561 41.7035 39.9334C40.5958 38.9147 39.3935 38.0074 38.1132 37.2114ZM25.3828 33.4485C25.2325 33.443 25.0822 33.443 24.9319 33.443C24.7872 33.443 24.6369 33.443 24.4922 33.4485C20.1393 33.5265 16.0591 34.7177 12.5188 36.7494C12.0735 35.959 11.6728 35.1407 11.3165 34.3002C10.1197 31.4725 9.48516 28.4833 9.42949 25.3939C9.42392 25.2437 9.42393 25.0934 9.42393 24.9375C9.42393 24.7928 9.42392 24.648 9.42949 24.5033C9.48516 21.4084 10.1197 18.4081 11.3165 15.5804C11.6728 14.7343 12.0791 13.9104 12.53 13.1145C16.0646 15.1462 20.1448 16.3374 24.4922 16.4098C24.6369 16.4098 24.7872 16.4153 24.9319 16.4153C25.0822 16.4153 25.2325 16.4153 25.3828 16.4098C29.7302 16.3318 33.8104 15.1406 37.345 13.1089C37.7959 13.9049 38.2022 14.7287 38.5585 15.5804C39.7553 18.4137 40.3898 21.414 40.4455 24.5033C40.4455 24.648 40.4511 24.7928 40.4511 24.9375C40.4511 25.0878 40.4511 25.2381 40.4455 25.3939C40.3898 28.4777 39.7553 31.4725 38.5585 34.3002C38.2022 35.1463 37.8015 35.9646 37.3506 36.755C33.8159 34.7177 29.7357 33.5265 25.3828 33.4485Z" fill="white"/>
</svg>
