<svg width="54" height="54" viewBox="0 0 54 54" fill="none" xmlns="http://www.w3.org/2000/svg">
<rect width="53.3333" height="53.3333" rx="26.6667" fill="url(#paint0_linear_2051_1573)"/>
<path d="M39.3333 18.0698C38.4099 18.5227 37.4334 18.8221 36.4342 18.9587C37.4884 18.2467 38.2784 17.1265 38.6576 15.8061C37.667 16.4728 36.5826 16.9425 35.4515 17.1949C34.6955 16.268 33.6887 15.651 32.5891 15.4406C31.4895 15.2303 30.3592 15.4386 29.3755 16.0327C28.3919 16.6269 27.6105 17.5734 27.1539 18.7237C26.6973 19.8741 26.5914 21.1632 26.8527 22.389C24.8497 22.2745 22.8904 21.6848 21.1021 20.6584C19.3138 19.6319 17.7365 18.1916 16.4726 16.4311C16.0293 17.3062 15.7964 18.2974 15.797 19.3059C15.7954 20.2425 15.9987 21.1649 16.3888 21.9912C16.7789 22.8175 17.3436 23.5219 18.0327 24.0417C17.2317 24.017 16.4479 23.7741 15.7479 23.3334V23.4028C15.7539 24.7151 16.1606 25.9847 16.8993 26.997C17.6379 28.0093 18.6632 28.702 19.8016 28.958C19.3634 29.1088 18.9084 29.1883 18.4504 29.1941C18.1333 29.1899 17.817 29.1574 17.5045 29.0969C17.8287 30.2258 18.456 31.2123 19.2993 31.9192C20.1425 32.6261 21.1597 33.0183 22.2093 33.0411C20.4369 34.6178 18.2488 35.4783 15.9935 35.4854C15.5829 35.4869 15.1726 35.4591 14.7651 35.4021C17.0677 37.0829 19.751 37.9751 22.4918 37.9714C24.3832 37.9936 26.2595 37.5895 28.0112 36.7827C29.7629 35.9758 31.3548 34.7825 32.694 33.2723C34.0332 31.7622 35.0928 29.9655 35.8109 27.9871C36.529 26.0088 36.8912 23.8885 36.8765 21.7502C36.8765 21.5141 36.8765 21.2641 36.8765 21.0141C37.8404 20.2014 38.6717 19.2051 39.3333 18.0698Z" fill="white"/>
<defs>
<linearGradient id="paint0_linear_2051_1573" x1="26.6667" y1="0" x2="26.6667" y2="53.3333" gradientUnits="userSpaceOnUse">
<stop stop-color="#A837FF"/>
<stop offset="1" stop-color="#652199"/>
</linearGradient>
</defs>
</svg>
