<svg width="54" height="54" viewBox="0 0 54 54" fill="none" xmlns="http://www.w3.org/2000/svg">
<rect width="53.3333" height="53.3333" rx="26.6667" fill="url(#paint0_linear_2051_1566)"/>
<path d="M26.6665 15.6665C24.4909 15.6665 22.3642 16.3116 20.5552 17.5203C18.7463 18.729 17.3364 20.447 16.5038 22.457C15.6713 24.467 15.4534 26.6787 15.8779 28.8125C16.3023 30.9463 17.35 32.9063 18.8883 34.4447C20.4267 35.983 22.3867 37.0307 24.5205 37.4551C26.6543 37.8796 28.866 37.6617 30.876 36.8292C32.886 35.9966 34.604 34.5867 35.8127 32.7778C37.0214 30.9688 37.6665 28.8421 37.6665 26.6665C37.6665 25.222 37.382 23.7916 36.8292 22.457C36.2764 21.1224 35.4661 19.9098 34.4447 18.8883C33.4232 17.8669 32.2106 17.0566 30.876 16.5038C29.5414 15.951 28.111 15.6665 26.6665 15.6665ZM26.6665 17.8665C28.9267 17.8656 31.0993 18.7409 32.7275 20.3085C31.0467 21.2943 29.2657 22.0982 27.4145 22.7065C26.4932 21.119 25.437 19.6138 24.2575 18.2075C25.0407 17.982 25.8515 17.8672 26.6665 17.8665ZM22.1455 19.1315C23.298 20.4499 24.3323 21.867 25.2365 23.3665C23.0773 23.9026 20.8613 24.176 18.6365 24.1805H18.2405C18.8644 22.0681 20.2578 20.2665 22.1455 19.1315ZM20.0665 32.5075C18.6351 30.9001 17.8512 28.8188 17.8665 26.6665C17.8665 26.5565 17.8665 26.4465 17.8665 26.3475H18.6145C21.2186 26.3242 23.808 25.9543 26.3145 25.2475C26.6665 25.9185 26.9965 26.6115 27.3155 27.3265C25.6011 27.9309 24.0045 28.8278 22.5965 29.9775L22.2665 30.2415C21.4823 30.9458 20.7473 31.7029 20.0665 32.5075ZM26.6665 35.4665C24.9132 35.4704 23.1995 34.9452 21.7495 33.9595C22.285 33.3453 22.8581 32.7648 23.4655 32.2215L23.8175 31.9245C25.119 30.8299 26.6104 29.9835 28.2175 29.4275C28.879 31.2161 29.394 33.0555 29.7575 34.9275C28.7673 35.289 27.7207 35.4716 26.6665 35.4665ZM31.7595 33.8275C31.3996 32.1627 30.9292 30.5238 30.3515 28.9215H30.7255C30.7689 28.9108 30.8142 28.9108 30.8575 28.9215H30.9785H31.0885H31.6165C32.7741 28.9248 33.923 29.1219 35.0155 29.5045C34.4153 31.2539 33.2752 32.7676 31.7595 33.8275ZM31.6165 26.6665C31.3855 26.6665 31.1545 26.6665 30.9345 26.6665C30.7921 26.6486 30.6479 26.6486 30.5055 26.6665C30.2065 26.6849 29.909 26.7216 29.6145 26.7765H29.5045C29.1855 26.0395 28.8555 25.3245 28.4925 24.5765C30.4622 23.9001 32.3539 23.015 34.1355 21.9365C35.0193 23.3548 35.481 24.9954 35.4665 26.6665C35.4665 26.8535 35.4665 27.0405 35.4665 27.2275C34.2199 26.8427 32.9211 26.6535 31.6165 26.6665Z" fill="white"/>
<defs>
<linearGradient id="paint0_linear_2051_1566" x1="26.6667" y1="0" x2="26.6667" y2="53.3333" gradientUnits="userSpaceOnUse">
<stop stop-color="#A837FF"/>
<stop offset="1" stop-color="#652199"/>
</linearGradient>
</defs>
</svg>
