<svg width="22" height="31" viewBox="0 0 22 31" fill="none" xmlns="http://www.w3.org/2000/svg">
<path fill-rule="evenodd" clip-rule="evenodd" d="M10.6667 0C16.5638 0 21.3333 4.76952 21.3333 10.6667C21.3333 18.6667 10.6667 30.4762 10.6667 30.4762C10.6667 30.4762 0 18.6667 0 10.6667C0 4.76952 4.76952 0 10.6667 0ZM3.04799 10.6665C3.04799 15.0093 7.49752 21.6531 10.667 25.7217C13.8975 21.6227 18.2861 15.0551 18.2861 10.6665C18.2861 6.46077 14.8728 3.04743 10.667 3.04743C6.46132 3.04743 3.04799 6.46077 3.04799 10.6665ZM10.6667 14.4762C8.56273 14.4762 6.85714 12.7706 6.85714 10.6667C6.85714 8.56273 8.56273 6.85714 10.6667 6.85714C12.7706 6.85714 14.4762 8.56273 14.4762 10.6667C14.4762 12.7706 12.7706 14.4762 10.6667 14.4762Z" fill="#A837FF"/>
</svg>
