<svg width="54" height="54" viewBox="0 0 54 54" fill="none" xmlns="http://www.w3.org/2000/svg">
<rect width="53.3333" height="53.3333" rx="26.6667" fill="url(#paint0_linear_2051_1568)"/>
<path d="M37.2886 17.9334H30.7544V19.9878H37.3144L37.2886 17.9334ZM35.9096 32.067C35.4139 32.4384 34.8285 32.6267 34.2341 32.6061C33.8407 32.6525 33.443 32.6066 33.066 32.4712C32.689 32.3358 32.3408 32.1139 32.0432 31.8193C31.4929 31.1139 31.2064 30.1945 31.2441 29.2549H39.776C39.8375 28.2765 39.7636 27.2933 39.5569 26.3407C39.357 25.4344 39.0071 24.5791 38.5258 23.82C38.0414 23.0835 37.4157 22.4808 36.6957 22.0569C35.8947 21.6104 35.0112 21.3856 34.1181 21.4012C33.2783 21.3942 32.4456 21.5776 31.6694 21.9403C30.9587 22.2791 30.3146 22.7744 29.7749 23.3974C29.2367 24.0329 28.8199 24.7867 28.5505 25.6122C28.2615 26.5032 28.1174 27.4461 28.1252 28.3952C28.112 29.3577 28.2517 30.3152 28.5376 31.2219C28.7806 32.043 29.1662 32.801 29.6718 33.4512C30.1949 34.0897 30.8379 34.5875 31.5534 34.9083C32.3513 35.252 33.2 35.4202 34.0537 35.4037C35.2515 35.446 36.4342 35.0914 37.4561 34.3838C38.4883 33.5545 39.2315 32.3432 39.5569 30.9596H36.7086C36.5562 31.4174 36.2756 31.8062 35.9096 32.067ZM31.489 26.0639C31.5893 25.7006 31.7558 25.3651 31.9778 25.079C32.1998 24.7929 32.4723 24.5625 32.7778 24.4028C33.1824 24.1969 33.623 24.0972 34.0666 24.1114C34.387 24.0804 34.7096 24.1282 35.0121 24.2515C35.3146 24.3747 35.59 24.5705 35.8194 24.8253C36.2573 25.4314 36.5383 26.1626 36.6313 26.9381H31.2828C31.3036 26.642 31.3512 26.3491 31.4246 26.0639H31.489ZM24.6713 25.3645C25.3272 25.0556 25.8972 24.5522 26.3209 23.9074C26.7104 23.2226 26.9039 22.4187 26.8751 21.6052C26.9004 20.8633 26.7724 20.125 26.5013 19.4487C26.2736 18.8628 25.9081 18.3589 25.4445 17.9916C24.9531 17.6098 24.3949 17.3515 23.8078 17.234C23.1129 17.0692 22.4041 16.991 21.6941 17.0008H14V35.3309H21.8617C22.5791 35.3315 23.2937 35.2286 23.9882 35.0249C24.6464 34.8324 25.2701 34.5119 25.8312 34.0778C26.3747 33.6519 26.8173 33.0815 27.12 32.4167C27.4549 31.6733 27.6189 30.8465 27.5968 30.0125C27.6212 28.9791 27.3648 27.962 26.8622 27.0984C26.3217 26.2298 25.52 25.6135 24.6068 25.3645H24.6713ZM17.57 20.1335H20.908C21.2146 20.1331 21.5208 20.1624 21.823 20.221C22.1013 20.2676 22.3686 20.3766 22.6092 20.5415C22.8416 20.6902 23.0299 20.9132 23.1505 21.1826C23.2997 21.5057 23.3709 21.8676 23.3567 22.2317C23.3807 22.5454 23.3383 22.8609 23.2329 23.1523C23.1276 23.4437 22.9624 23.7025 22.7509 23.9074C22.2897 24.2659 21.7378 24.4449 21.1786 24.4174H17.57V20.1335ZM23.8078 30.9742C23.6753 31.2712 23.4751 31.5227 23.2278 31.7028C22.9704 31.8837 22.6868 32.012 22.3901 32.0816C22.0602 32.1651 21.7228 32.2042 21.3848 32.1982H17.5184V27.1712H21.3848C22.0483 27.1384 22.7035 27.3478 23.2536 27.7686C23.5021 28.0208 23.6946 28.3355 23.8155 28.6873C23.9364 29.0392 23.9823 29.4183 23.9495 29.794C23.9844 30.1945 23.9358 30.5987 23.8078 30.9742Z" fill="white"/>
<defs>
<linearGradient id="paint0_linear_2051_1568" x1="26.6667" y1="0" x2="26.6667" y2="53.3333" gradientUnits="userSpaceOnUse">
<stop stop-color="#A837FF"/>
<stop offset="1" stop-color="#652199"/>
</linearGradient>
</defs>
</svg>
