<svg width="163" height="10" viewBox="0 0 163 10" fill="none" xmlns="http://www.w3.org/2000/svg">
<path d="M2.43411 9.46828C1.94533 9.46828 1.48588 9.35452 1.04598 9.14126C0.606086 8.928 0.254164 8.64366 0 8.30244L0.332368 7.27878C0.576756 7.59157 0.879798 7.84749 1.26104 8.04654C1.63251 8.24558 2.02354 8.34509 2.43411 8.34509C2.80558 8.34509 3.09884 8.28821 3.33345 8.16026C3.55829 8.0323 3.73425 7.86171 3.84178 7.64845C3.94931 7.43519 4.00797 7.19348 4.00797 6.92335C4.00797 6.61056 3.93954 6.35464 3.79291 6.15559C3.64627 5.95655 3.47031 5.80018 3.2357 5.68644C3.01086 5.5727 2.7567 5.45896 2.48298 5.37365C2.20927 5.28835 1.93555 5.18882 1.66184 5.06087C1.38813 4.93291 1.13396 4.79072 0.909124 4.6059C0.684287 4.42107 0.498555 4.17939 0.361697 3.86661C0.22484 3.55382 0.156408 3.15573 0.156408 2.65812C0.156408 2.16051 0.24439 1.7482 0.410574 1.35011C0.586534 0.952026 0.850472 0.625014 1.21217 0.383317C1.57386 0.141621 2.03331 0.0136719 2.59052 0.0136719C2.96199 0.0136719 3.32368 0.0847721 3.68537 0.226946C4.04707 0.369121 4.35989 0.568155 4.6336 0.838286L4.33056 1.89038C4.05684 1.62025 3.77336 1.43541 3.47031 1.32167C3.16727 1.20793 2.87401 1.13686 2.59052 1.13686C2.22882 1.13686 1.93555 1.20795 1.71072 1.3359C1.48588 1.46386 1.30992 1.64868 1.21217 1.86194C1.10464 2.0752 1.05576 2.33112 1.05576 2.60126C1.05576 2.92826 1.12419 3.18415 1.27082 3.3832C1.41745 3.58224 1.59341 3.72443 1.82803 3.83817C2.05286 3.95191 2.30703 4.05143 2.58074 4.15095C2.85446 4.25047 3.12817 4.34998 3.40189 4.46371C3.6756 4.57745 3.92976 4.73386 4.1546 4.91868C4.37944 5.10351 4.56517 5.34523 4.70203 5.65802C4.83889 5.9708 4.90731 6.36888 4.90731 6.85228C4.90731 7.33567 4.81933 7.74798 4.64337 8.14607C4.46742 8.54416 4.1937 8.87115 3.83201 9.11284C3.47031 9.35454 3.00109 9.48247 2.44388 9.48247L2.43411 9.46828Z" fill="white"/>
<path d="M10.6658 9.46875C9.83488 9.46875 9.17015 9.12751 8.70092 8.43086C8.2317 7.7342 7.9873 6.72479 7.9873 5.38835V0.14209H8.89643V5.3457C8.89643 6.36935 9.05283 7.12287 9.36565 7.60627C9.67847 8.07544 10.1184 8.31714 10.6854 8.31714C11.2523 8.31714 11.702 8.07544 12.0148 7.60627C12.3276 7.13709 12.484 6.38357 12.484 5.3457V0.14209H13.3638V5.38835C13.3638 6.72479 13.1292 7.74842 12.6502 8.43086C12.1712 9.12751 11.5163 9.46875 10.6756 9.46875H10.6658Z" fill="white"/>
<path d="M19.8638 9.46882C19.375 9.46882 18.9351 9.35508 18.5245 9.11338C18.1139 8.8859 17.762 8.54467 17.459 8.11814C17.1559 7.69162 16.9213 7.19403 16.7551 6.62533C16.589 6.05663 16.501 5.43104 16.501 4.73439C16.501 4.03773 16.589 3.41218 16.7551 2.84349C16.9213 2.27479 17.1559 1.77718 17.459 1.35065C17.762 0.924129 18.1139 0.597132 18.5245 0.355436C18.9351 0.113739 19.375 0 19.8638 0C20.3525 0 20.8022 0.127949 21.2226 0.369646C21.6331 0.611342 21.9851 0.96677 22.2783 1.45016L21.6918 2.27478C21.4474 1.90512 21.1737 1.63499 20.8706 1.45016C20.5676 1.26534 20.245 1.18005 19.9029 1.18005C19.5607 1.18005 19.2186 1.26534 18.9058 1.45016C18.6027 1.62077 18.3388 1.87669 18.1139 2.18948C17.8891 2.50226 17.7131 2.88614 17.5958 3.31266C17.4688 3.75341 17.4101 4.22256 17.4101 4.73439C17.4101 5.24621 17.4688 5.71539 17.5958 6.15613C17.7229 6.59687 17.8891 6.96654 18.1139 7.27932C18.3388 7.5921 18.6027 7.848 18.9058 8.01861C19.2088 8.18922 19.5412 8.28875 19.9029 8.28875C20.2646 8.28875 20.5676 8.20344 20.8706 8.01861C21.1737 7.83378 21.4474 7.56366 21.6918 7.17979L22.2783 8.00442C21.9851 8.4736 21.6331 8.84322 21.2226 9.08492C20.812 9.32662 20.3525 9.45459 19.854 9.45459L19.8638 9.46882Z" fill="white"/>
<path d="M28.105 9.46882C27.6162 9.46882 27.1763 9.35508 26.7657 9.11338C26.3551 8.8859 26.0032 8.54467 25.7002 8.11814C25.3972 7.69162 25.1625 7.19403 24.9964 6.62533C24.8302 6.05663 24.7422 5.43104 24.7422 4.73439C24.7422 4.03773 24.8302 3.41218 24.9964 2.84349C25.1625 2.27479 25.3972 1.77718 25.7002 1.35065C26.0032 0.924129 26.3551 0.597132 26.7657 0.355436C27.1763 0.113739 27.6162 0 28.105 0C28.5937 0 29.0434 0.127949 29.4638 0.369646C29.8743 0.611342 30.2263 0.96677 30.5195 1.45016L29.933 2.27478C29.6886 1.90512 29.4149 1.63499 29.1118 1.45016C28.8088 1.26534 28.4862 1.18005 28.1441 1.18005C27.8019 1.18005 27.4598 1.26534 27.147 1.45016C26.8439 1.62077 26.58 1.87669 26.3552 2.18948C26.1303 2.50226 25.9544 2.88614 25.837 3.31266C25.71 3.75341 25.6513 4.22256 25.6513 4.73439C25.6513 5.24621 25.71 5.71539 25.837 6.15613C25.9641 6.59687 26.1303 6.96654 26.3552 7.27932C26.58 7.5921 26.8439 7.848 27.147 8.01861C27.45 8.18922 27.7824 8.28875 28.1441 8.28875C28.5058 8.28875 28.8088 8.20344 29.1118 8.01861C29.4149 7.83378 29.6886 7.56366 29.933 7.17979L30.5195 8.00442C30.2263 8.4736 29.8743 8.84322 29.4638 9.08492C29.0532 9.32662 28.5937 9.45459 28.0952 9.45459L28.105 9.46882Z" fill="white"/>
<path d="M34.5458 8.21765H38.2508V9.36926H33.6367V0.12793H38.1237V1.27954H34.5458V8.21765ZM34.4579 4.10882H37.7229V5.23198H34.4579V4.10882Z" fill="white"/>
<path d="M43.3833 9.46926C42.8945 9.46926 42.4351 9.3555 41.9952 9.14224C41.5553 8.92898 41.2034 8.64464 40.9492 8.30342L41.2816 7.27976C41.526 7.59254 41.829 7.84847 42.2103 8.04751C42.5817 8.24656 42.9728 8.34607 43.3833 8.34607C43.7548 8.34607 44.0481 8.28919 44.2827 8.16123C44.5075 8.03328 44.6835 7.86269 44.791 7.64943C44.8985 7.43616 44.9572 7.19445 44.9572 6.92432C44.9572 6.61154 44.8888 6.35561 44.7421 6.15657C44.5955 5.95753 44.4195 5.80115 44.1849 5.68741C43.9601 5.57367 43.7059 5.45993 43.4322 5.37463C43.1585 5.28932 42.8848 5.1898 42.6111 5.06184C42.3373 4.93389 42.0832 4.7917 41.8583 4.60687C41.6335 4.42205 41.4478 4.18037 41.3109 3.86758C41.1741 3.5548 41.1056 3.1567 41.1056 2.65909C41.1056 2.16148 41.1936 1.74918 41.3598 1.35109C41.5357 0.953003 41.7997 0.62599 42.1614 0.384294C42.5231 0.142598 42.9825 0.0146484 43.5397 0.0146484C43.9112 0.0146484 44.2729 0.0857486 44.6346 0.227923C44.9963 0.370097 45.3091 0.569131 45.5828 0.839262L45.2798 1.89136C45.0061 1.62123 44.7226 1.43639 44.4195 1.32265C44.1165 1.20891 43.8232 1.13784 43.5397 1.13784C43.178 1.13784 42.8848 1.20892 42.6599 1.33688C42.4351 1.46484 42.2591 1.64966 42.1614 1.86292C42.0539 2.07618 42.005 2.3321 42.005 2.60223C42.005 2.92923 42.0734 3.18513 42.22 3.38417C42.3667 3.58322 42.5426 3.7254 42.7772 3.83914C43.0021 3.95288 43.2562 4.05241 43.53 4.15193C43.8037 4.25145 44.0774 4.35095 44.3511 4.46469C44.6248 4.57843 44.879 4.73483 45.1038 4.91966C45.3287 5.10449 45.5144 5.34621 45.6512 5.65899C45.7881 5.97178 45.8565 6.36986 45.8565 6.85325C45.8565 7.33665 45.7686 7.74896 45.5926 8.14705C45.4166 8.54513 45.1429 8.87212 44.7812 9.11382C44.4195 9.35552 43.9503 9.48344 43.3931 9.48344L43.3833 9.46926Z" fill="white"/>
<path d="M50.8335 9.46926C50.3447 9.46926 49.8853 9.3555 49.4454 9.14224C49.0055 8.92898 48.6536 8.64464 48.3994 8.30342L48.7318 7.27976C48.9762 7.59254 49.2792 7.84847 49.6605 8.04751C50.0319 8.24656 50.423 8.34607 50.8335 8.34607C51.205 8.34607 51.4983 8.28919 51.7329 8.16123C51.9577 8.03328 52.1337 7.86269 52.2412 7.64943C52.3487 7.43616 52.4074 7.19445 52.4074 6.92432C52.4074 6.61154 52.339 6.35561 52.1923 6.15657C52.0457 5.95753 51.8697 5.80115 51.6351 5.68741C51.4103 5.57367 51.1561 5.45993 50.8824 5.37463C50.6087 5.28932 50.335 5.1898 50.0613 5.06184C49.7875 4.93389 49.5334 4.7917 49.3085 4.60687C49.0837 4.42205 48.898 4.18037 48.7611 3.86758C48.6243 3.5548 48.5558 3.1567 48.5558 2.65909C48.5558 2.16148 48.6438 1.74918 48.81 1.35109C48.986 0.953003 49.2499 0.62599 49.6116 0.384294C49.9733 0.142598 50.4327 0.0146484 50.9899 0.0146484C51.3614 0.0146484 51.7231 0.0857486 52.0848 0.227923C52.4465 0.370097 52.7593 0.569131 53.033 0.839262L52.73 1.89136C52.4563 1.62123 52.1728 1.43639 51.8697 1.32265C51.5667 1.20891 51.2734 1.13784 50.9899 1.13784C50.6282 1.13784 50.335 1.20892 50.1101 1.33688C49.8853 1.46484 49.7093 1.64966 49.6116 1.86292C49.5041 2.07618 49.4552 2.3321 49.4552 2.60223C49.4552 2.92923 49.5236 3.18513 49.6702 3.38417C49.8169 3.58322 49.9928 3.7254 50.2274 3.83914C50.4523 3.95288 50.7064 4.05241 50.9802 4.15193C51.2539 4.25145 51.5276 4.35095 51.8013 4.46469C52.075 4.57843 52.3292 4.73483 52.554 4.91966C52.7788 5.10449 52.9646 5.34621 53.1014 5.65899C53.2383 5.97178 53.3067 6.36986 53.3067 6.85325C53.3067 7.33665 53.2187 7.74896 53.0428 8.14705C52.8668 8.54513 52.5931 8.87212 52.2314 9.11382C51.8697 9.35552 51.4005 9.48344 50.8433 9.48344L50.8335 9.46926Z" fill="white"/>
<path d="M60.6875 9.36926V0.12793H61.5957V9.36926H60.6875Z" fill="white"/>
<path d="M65.3213 9.36926V0.12793H66.0642L70.2677 7.72004H69.8767V0.12793H70.7858V9.36926H70.0429L65.8394 1.77716H66.2304V9.36926H65.3213Z" fill="white"/>
<path d="M79.6601 8.21765H83.365V9.36926H78.751V0.12793H83.2379V1.27954H79.6601V8.21765ZM79.5819 4.10882H82.8469V5.23198H79.5819V4.10882Z" fill="white"/>
<path d="M88.3993 9.36926L85.6035 0.12793H86.5811L89.152 8.65839H88.5851L91.1756 0.12793H92.0847L89.2987 9.36926H88.3993Z" fill="white"/>
<path d="M95.6142 8.21765H99.3191V9.36926H94.7051V0.12793H99.192V1.27954H95.6142V8.21765ZM95.5262 4.10882H98.7913V5.23198H95.5262V4.10882Z" fill="white"/>
<path d="M102.595 9.36926V0.12793H105.068C105.625 0.12793 106.094 0.255893 106.495 0.511807C106.886 0.76772 107.189 1.13737 107.404 1.62076C107.619 2.10416 107.727 2.68707 107.727 3.35529C107.727 4.02351 107.619 4.59222 107.404 5.07561C107.189 5.55901 106.886 5.92866 106.495 6.18457C106.104 6.44049 105.625 6.56843 105.068 6.56843H103.093L103.504 5.95709V9.36926H102.595ZM103.504 6.08504L103.093 5.43105H105.048C105.625 5.43105 106.065 5.2462 106.368 4.87655C106.671 4.5069 106.818 3.99506 106.818 3.34106C106.818 2.68706 106.671 2.17523 106.368 1.80558C106.065 1.45014 105.625 1.26533 105.048 1.26533H103.093L103.504 0.611317V6.07081V6.08504ZM106.847 9.36926L105.234 6.01397H106.202L107.834 9.36926H106.847Z" fill="white"/>
<path d="M112.458 9.36926V5.82914L112.663 6.65373L109.936 0.12793H110.903L113.201 5.63007H112.673L114.98 0.12793H115.879L113.161 6.65373L113.357 5.82914V9.36926H112.458Z" fill="white"/>
<path d="M123.768 9.36926H122.859V0.12793H127.346V1.27954H123.768V9.36926ZM123.681 4.49269H126.955V5.63007H123.681V4.49269Z" fill="white"/>
<path d="M130.435 9.36926V0.12793H132.908C133.465 0.12793 133.934 0.255893 134.335 0.511807C134.726 0.76772 135.029 1.13737 135.244 1.62076C135.459 2.10416 135.567 2.68707 135.567 3.35529C135.567 4.02351 135.459 4.59222 135.244 5.07561C135.029 5.55901 134.726 5.92866 134.335 6.18457C133.944 6.44049 133.465 6.56843 132.908 6.56843H130.933L131.344 5.95709V9.36926H130.435ZM131.344 6.08504L130.933 5.43105H132.888C133.465 5.43105 133.905 5.2462 134.208 4.87655C134.511 4.5069 134.658 3.99506 134.658 3.34106C134.658 2.68706 134.511 2.17523 134.208 1.80558C133.905 1.45014 133.465 1.26533 132.888 1.26533H130.933L131.344 0.611317V6.07081V6.08504ZM134.687 9.36926L133.074 6.01397H134.042L135.674 9.36926H134.687Z" fill="white"/>
<path d="M137.894 9.36926L140.768 0.12793H141.667L144.551 9.36926H143.593L141.022 0.867242H141.383L138.812 9.36926H137.874H137.894ZM139.116 7.05181L139.36 5.99974H142.938L143.202 7.05181H139.116Z" fill="white"/>
<path d="M147.307 9.36926V0.12793H148.05L150.894 7.1087H150.493L153.309 0.12793H154.052V9.36926H153.192V2.11836H153.387L150.884 8.24607H150.464L147.942 2.11836H148.167V9.36926H147.297H147.307Z" fill="white"/>
<path d="M158.696 8.21765H162.401V9.36926H157.787V0.12793H162.274V1.27954H158.696V8.21765ZM158.618 4.10882H161.883V5.23198H158.618V4.10882Z" fill="white"/>
</svg>
