<svg width="272" height="240" viewBox="0 0 272 240" fill="none" xmlns="http://www.w3.org/2000/svg">
<path d="M138.522 175.315C138.814 175.433 139.105 175.531 139.397 175.648C139.397 175.863 139.397 176.098 139.387 176.314C139.261 184.631 139.125 192.939 138.959 201.237C138.794 192.812 138.648 184.377 138.522 175.932C138.522 175.726 138.522 175.531 138.512 175.315H138.522Z" fill="white"/>
<path d="M139.504 168.201C139.504 168.759 139.494 169.327 139.484 169.884C139.134 169.757 138.794 169.61 138.454 169.464C138.434 168.867 138.434 168.28 138.425 167.683C137.822 122.308 137.783 96.8754 138.289 51.4613V51.3439C138.425 39.6112 138.59 37.3996 138.794 25.6963L138.969 26.4987L139.144 25.6963C139.348 37.4094 139.513 39.6405 139.649 51.383V51.4221C140.164 97.0222 140.126 122.631 139.504 168.192V168.201Z" fill="white"/>
<path d="M144.344 177.194C144.703 177.292 145.063 177.38 145.432 177.478C145.432 177.81 145.423 178.143 145.413 178.476C145.267 186.069 145.102 193.653 144.898 201.237C144.694 193.555 144.519 185.864 144.373 178.163C144.363 177.84 144.353 177.517 144.353 177.194H144.344Z" fill="white"/>
<path d="M145.54 170.52C145.54 170.971 145.53 171.411 145.52 171.871C145.083 171.753 144.665 171.646 144.237 171.518C144.227 171.039 144.227 170.56 144.218 170.08C143.547 128.306 143.77 106.465 144.879 64.8281C145.996 106.602 146.22 128.59 145.54 170.511V170.52Z" fill="white"/>
<path d="M133.059 64.8379C134.449 116.828 134.459 149.247 133.059 201.237C131.66 149.247 131.669 116.828 133.059 64.8379Z" fill="white"/>
<path d="M127.15 109.557C128.569 146.83 128.578 163.964 127.15 201.237C125.721 163.964 125.73 146.83 127.15 109.557Z" fill="white"/>
<path d="M150.108 178.476C150.565 178.564 151.022 178.633 151.478 178.701C151.478 179.053 151.469 179.396 151.459 179.748C151.294 186.911 151.08 194.064 150.798 201.227C150.516 194.006 150.302 186.774 150.127 179.543C150.118 179.19 150.108 178.828 150.108 178.466V178.476Z" fill="white"/>
<path d="M151.624 172.096C151.624 172.428 151.614 172.761 151.605 173.094C151.07 173.025 150.526 172.927 149.991 172.83C149.991 172.468 149.981 172.086 149.972 171.724C149.476 144.276 149.758 136.986 150.808 109.547C151.848 137.113 152.13 144.511 151.624 172.086V172.096Z" fill="white"/>
<path d="M146.968 17.5355C144.276 16.9483 142.176 14.8445 141.593 12.1339L138.969 0L136.344 12.1339C135.761 14.8445 133.662 16.9581 130.979 17.5355L118.926 20.1873L130.979 22.8294C133.662 23.4165 135.771 25.5301 136.344 28.2211L138.405 52.7727L138.521 54.1916V54.221L138.969 39.3178L139.416 54.1916L139.523 52.851V52.8119L141.583 28.2211C142.176 25.5301 144.266 23.4165 146.958 22.8294L159.011 20.1873L146.958 17.5355H146.968ZM140.66 20.7451C140.086 20.8625 139.659 21.3126 139.523 21.89L139.114 23.7883L138.969 24.4537L138.823 23.7883L138.415 21.89C138.288 21.3126 137.851 20.8723 137.277 20.7451L134.731 20.1873L137.277 19.6198C137.851 19.5023 138.278 19.0522 138.415 18.4749L138.969 15.9209L139.523 18.4749C139.649 19.0522 140.086 19.4925 140.66 19.6198L143.206 20.1873L140.66 20.7451Z" fill="white"/>
<path d="M166.486 173.476C161.227 173.926 156.26 173.789 151.604 173.104C151.07 173.035 150.526 172.937 149.991 172.84C148.475 172.575 146.968 172.243 145.53 171.871C145.092 171.753 144.674 171.646 144.247 171.519C142.614 171.049 141.029 170.501 139.494 169.884C139.144 169.757 138.803 169.61 138.463 169.464C136.85 168.779 135.295 168.025 133.778 167.193C133.292 166.919 132.816 166.655 132.34 166.362C130.872 165.491 129.453 164.542 128.102 163.524C127.451 163.044 126.809 162.536 126.177 162.017C111.675 150.04 104.249 130.028 105.678 107.62C106.466 96.1513 109.634 84.9665 114.475 74.7114C113.658 77.1676 112.404 80.3283 111.724 82.7648C109.255 90.828 107.797 99.312 107.428 107.718C106.757 129.079 113.26 147.505 126.148 159.375C126.79 159.972 127.451 160.549 128.131 161.107C129.463 162.213 130.853 163.25 132.311 164.209C132.806 164.542 133.302 164.864 133.807 165.168C135.285 166.097 136.83 166.939 138.424 167.702C138.784 167.878 139.144 168.045 139.513 168.211C141.029 168.906 142.604 169.532 144.227 170.09C144.665 170.237 145.102 170.393 145.549 170.53C146.988 170.99 148.455 171.391 149.972 171.744C150.516 171.881 151.07 172.008 151.624 172.106C156.241 173.065 161.208 173.544 166.486 173.476Z" fill="white"/>
<path d="M166.486 179.425C161.558 180.375 156.445 180.463 151.469 179.758C151.021 179.699 150.584 179.621 150.137 179.553C148.543 179.269 146.978 178.917 145.413 178.476C145.073 178.369 144.723 178.281 144.373 178.163C142.682 177.645 141.02 177.028 139.406 176.314C139.115 176.186 138.823 176.059 138.551 175.932C137.025 175.228 135.547 174.425 134.109 173.544C135.402 174.083 136.685 174.64 137.987 175.11C138.172 175.179 138.356 175.257 138.541 175.316C138.833 175.433 139.124 175.531 139.416 175.648C141.039 176.235 142.692 176.754 144.354 177.194C144.713 177.292 145.073 177.38 145.442 177.478C146.997 177.87 148.553 178.202 150.127 178.476C150.584 178.564 151.041 178.633 151.498 178.701C156.445 179.474 161.48 179.699 166.495 179.416L166.486 179.425Z" fill="white"/>
<path d="M119.237 65.083C118.868 65.1906 118.392 65.3668 117.867 65.6799C117.332 66.0028 116.944 66.3551 116.681 66.6389C117.624 67.1184 118.567 67.6076 119.51 68.0871C119.578 67.7251 119.626 67.2456 119.587 66.6976C119.539 66.0224 119.383 65.4744 119.237 65.0928V65.083Z" fill="white"/>
<path d="M119.413 68.5765L116.312 66.9912C115.884 67.4609 114.786 68.8211 114.611 70.8565C114.514 72.0307 114.757 72.9897 114.961 73.567C115.544 73.3811 116.613 72.9603 117.595 71.972C118.897 70.6705 119.286 69.1734 119.403 68.5765H119.413ZM117.012 71.3751C116.516 71.8644 115.991 72.2068 115.515 72.4417C115.418 71.9426 115.398 71.4338 115.437 70.925C115.544 69.6626 116.069 68.6743 116.535 68.0382L118.441 69.0168C118.227 69.692 117.809 70.5825 117.012 71.3849V71.3751Z" fill="white"/>
<path d="M114.193 70.6509C114.193 70.6509 114.018 71.3848 114.105 72.1089C114.134 72.3731 114.193 72.5786 114.232 72.696C113.998 72.6765 113.678 72.6667 113.308 72.7254C112.881 72.7939 112.54 72.9309 112.307 73.0483C112.482 72.471 112.725 72.0796 112.919 71.8349C113.415 71.1989 114.193 70.6411 114.193 70.6411V70.6509Z" fill="white"/>
<path d="M117.75 72.4712C117.75 72.4712 117.264 73.0485 116.633 73.4008C116.399 73.528 116.205 73.6063 116.088 73.6454C116.244 73.8216 116.438 74.076 116.604 74.4087C116.798 74.8001 116.885 75.1622 116.934 75.4166C117.294 74.9371 117.459 74.5066 117.546 74.2032C117.77 73.4302 117.75 72.4712 117.75 72.4712Z" fill="white"/>
<path d="M19.43 221.331V221.184C19.43 219.902 18.3802 218.845 17.1069 218.845H6.81361C5.54031 218.845 4.49057 219.902 4.49057 221.184V221.331C4.49057 222.613 5.54031 223.669 6.81361 223.669H15.9503C18.3025 223.669 20.4117 224.687 21.8599 226.292C21.9668 226.4 22.0446 226.507 22.1515 226.625C23.279 228.014 23.9594 229.795 23.9594 231.733C23.9594 236.185 20.3728 239.796 15.9503 239.796H8.00915C3.58662 239.796 0 236.185 0 231.733H4.52945C4.52945 233.67 6.08462 235.236 8.00915 235.236H15.9503C17.8748 235.236 19.4688 233.67 19.4688 231.733C19.4688 229.795 17.8748 228.229 15.9503 228.229H6.81361C4.96684 228.229 3.29503 227.496 2.06061 226.292C1.73013 225.959 1.44826 225.597 1.19554 225.196C0.437393 224.1 0 222.75 0 221.292V221.145C0 217.348 3.04231 214.246 6.81361 214.246H17.1069C20.8782 214.246 23.9594 217.348 23.9594 221.145V221.292L19.43 221.331Z" fill="white"/>
<path d="M31.2005 221.145V223.513H47.5104V228.073H31.2005V232.888C31.2005 234.17 32.2503 235.227 33.5236 235.227H52.0399V239.787H33.5236C29.7523 239.787 26.71 236.685 26.71 232.888V221.136C26.71 217.339 29.7523 214.237 33.5236 214.237H52.0399V218.797H33.5236C32.2503 218.797 31.2005 219.854 31.2005 221.136V221.145Z" fill="white"/>
<path d="M54.752 239.787V214.247H59.2814V239.787H54.752Z" fill="white"/>
<path d="M76.2812 224.502L87.2647 239.787H81.6855L72.9182 227.604L66.5031 233.475V239.787H61.9736V214.247H66.5031V227.31L70.2355 223.875L73.6083 220.773L80.6746 214.247H87.3813L76.291 224.502H76.2812Z" fill="white"/>
<path d="M109.805 227.017C109.805 234.062 104.119 239.787 97.1204 239.787C90.1221 239.787 84.436 234.062 84.436 227.017C84.436 219.971 90.1221 214.247 97.1204 214.247C104.119 214.247 109.805 219.971 109.805 227.017ZM105.275 227.017C105.275 222.496 101.611 218.807 97.1204 218.807C92.6299 218.807 88.9655 222.496 88.9655 227.017C88.9655 231.537 92.6299 235.227 97.1204 235.227C101.611 235.227 105.275 231.537 105.275 227.017Z" fill="white"/>
<path d="M153.758 214.247V239.787H149.229V223.513L144.767 226.948L141.074 229.835L137.38 226.948L132.919 223.513V239.787H128.389V214.247L132.919 217.75L141.074 224.061L149.229 217.75L153.758 214.247Z" fill="white"/>
<path d="M181.878 227.017C181.878 234.062 176.191 239.787 169.193 239.787C162.195 239.787 156.509 234.062 156.509 227.017C156.509 219.971 162.195 214.247 169.193 214.247C176.191 214.247 181.878 219.971 181.878 227.017ZM177.348 227.017C177.348 222.496 173.684 218.807 169.193 218.807C164.703 218.807 161.038 222.496 161.038 227.017C161.038 231.537 164.703 235.227 169.193 235.227C173.684 235.227 177.348 231.537 177.348 227.017Z" fill="white"/>
<path d="M207.567 214.286V218.846H197.167V239.826H192.638V218.846H182.237V214.286H207.567Z" fill="white"/>
<path d="M211.222 239.787V214.247H215.751V239.787H211.222Z" fill="white"/>
<path d="M243.881 227.017C243.881 234.062 238.194 239.787 231.196 239.787C224.198 239.787 218.512 234.062 218.512 227.017C218.512 219.971 224.198 214.247 231.196 214.247C238.194 214.247 243.881 219.971 243.881 227.017ZM239.351 227.017C239.351 222.496 235.687 218.807 231.196 218.807C226.706 218.807 223.041 222.496 223.041 227.017C223.041 231.537 226.706 235.227 231.196 235.227C235.687 235.227 239.351 231.537 239.351 227.017Z" fill="white"/>
<path d="M272 214.286V239.826L267.471 236.322L251.161 223.66V239.826H246.631V214.354L251.161 217.857L267.471 230.52V214.247L272 214.286Z" fill="white"/>
</svg>
