<svg width="61" height="202" viewBox="0 0 61 202" fill="none" xmlns="http://www.w3.org/2000/svg">
<path d="M33.0171 175.315C33.3086 175.433 33.6002 175.531 33.8918 175.648C33.8918 175.863 33.8918 176.098 33.8821 176.314C33.7558 184.631 33.6197 192.939 33.4544 201.237C33.2892 192.812 33.1434 184.377 33.0171 175.932C33.0171 175.726 33.017 175.531 33.0073 175.315H33.0171Z" fill="white"/>
<path d="M33.9989 168.201C33.9989 168.759 33.9892 169.327 33.9794 169.884C33.6295 169.757 33.2893 169.61 32.9491 169.464C32.9297 168.867 32.9297 168.28 32.92 167.683C32.3174 122.308 32.2785 96.8754 32.7839 51.4613V51.3439C32.92 39.6112 33.0852 37.3996 33.2893 25.6963L33.4643 26.4987L33.6393 25.6963C33.8434 37.4094 34.0086 39.6405 34.1447 51.383V51.4221C34.6599 97.0222 34.621 122.631 33.9989 168.192V168.201Z" fill="white"/>
<path d="M38.8394 177.194C39.199 177.292 39.5586 177.38 39.928 177.478C39.928 177.81 39.9183 178.143 39.9085 178.476C39.7627 186.069 39.5975 193.653 39.3934 201.237C39.1893 193.555 39.0143 185.864 38.8685 178.163C38.8588 177.84 38.8491 177.517 38.8491 177.194H38.8394Z" fill="white"/>
<path d="M40.0349 170.52C40.0349 170.971 40.0251 171.411 40.0154 171.871C39.578 171.753 39.1601 171.646 38.7324 171.518C38.7227 171.039 38.7227 170.56 38.713 170.08C38.0423 128.306 38.2659 106.465 39.3739 64.8281C40.4917 106.602 40.7153 128.59 40.0349 170.511V170.52Z" fill="white"/>
<path d="M27.5546 64.8379C28.9446 116.828 28.9543 149.247 27.5546 201.237C26.155 149.247 26.1647 116.828 27.5546 64.8379Z" fill="white"/>
<path d="M21.6449 109.557C23.064 146.83 23.0737 163.964 21.6449 201.237C20.2161 163.964 20.2258 146.83 21.6449 109.557Z" fill="white"/>
<path d="M44.603 178.476C45.0599 178.564 45.5167 178.633 45.9735 178.701C45.9735 179.053 45.9638 179.396 45.9541 179.748C45.7888 186.911 45.575 194.064 45.2931 201.227C45.0113 194.006 44.7974 186.774 44.6225 179.543C44.6128 179.19 44.603 178.828 44.603 178.466V178.476Z" fill="white"/>
<path d="M46.1194 172.096C46.1194 172.428 46.1097 172.761 46.1 173.094C45.5654 173.025 45.0211 172.927 44.4865 172.83C44.4865 172.468 44.4768 172.086 44.4671 171.724C43.9714 144.276 44.2532 136.986 45.303 109.547C46.343 137.113 46.6249 144.511 46.1194 172.086V172.096Z" fill="white"/>
<g filter="url(#filter0_d_2051_1488)">
<path d="M41.4639 17.5355C38.7715 16.9483 36.672 14.8445 36.0888 12.1339L33.4644 0L30.8401 12.1339C30.2569 14.8445 28.1574 16.9581 25.4747 17.5355L13.4221 20.1873L25.4747 22.8294C28.1574 23.4165 30.2666 25.5301 30.8401 28.2211L32.9007 52.7727L33.0173 54.1916V54.221L33.4644 39.3178L33.9115 54.1916L34.0185 52.851V52.8119L36.0791 28.2211C36.672 25.5301 38.7617 23.4165 41.4541 22.8294L53.5067 20.1873L41.4541 17.5355H41.4639ZM35.1557 20.7451C34.5822 20.8625 34.1545 21.3126 34.0185 21.89L33.6102 23.7883L33.4644 24.4537L33.3186 23.7883L32.9104 21.89C32.784 21.3126 32.3467 20.8723 31.7732 20.7451L29.2266 20.1873L31.7732 19.6198C32.3467 19.5023 32.7743 19.0522 32.9104 18.4749L33.4644 15.9209L34.0185 18.4749C34.1448 19.0522 34.5822 19.4925 35.1557 19.6198L37.7023 20.1873L35.1557 20.7451Z" fill="white"/>
</g>
<path d="M60.9812 173.476C55.7227 173.926 50.7559 173.789 46.1001 173.104C45.5655 173.035 45.0212 172.937 44.4866 172.84C42.9703 172.575 41.4637 172.243 40.0252 171.871C39.5878 171.753 39.1699 171.646 38.7422 171.519C37.1093 171.049 35.5249 170.501 33.9892 169.884C33.6393 169.757 33.2991 169.61 32.9589 169.464C31.3454 168.779 29.7902 168.025 28.2739 167.193C27.7879 166.919 27.3117 166.655 26.8354 166.362C25.3677 165.491 23.9486 164.542 22.5975 163.524C21.9463 163.044 21.3048 162.536 20.673 162.017C6.17101 150.04 -1.25495 130.028 0.173862 107.62C0.961169 96.1513 4.12983 84.9665 8.97031 74.7114C8.15385 77.1676 6.89999 80.3283 6.2196 82.7648C3.75076 90.828 2.29278 99.312 1.92343 107.718C1.25276 129.079 7.75533 147.505 20.6438 159.375C21.2853 159.972 21.9463 160.549 22.6267 161.107C23.9583 162.213 25.3482 163.25 26.8062 164.209C27.3019 164.542 27.7976 164.864 28.3031 165.168C29.7805 166.097 31.3259 166.939 32.92 167.702C33.2796 167.878 33.6393 168.045 34.0086 168.211C35.5249 168.906 37.0995 169.532 38.7227 170.09C39.1601 170.237 39.5975 170.393 40.0446 170.53C41.4832 170.99 42.9509 171.391 44.4672 171.744C45.0115 171.881 45.5655 172.008 46.1195 172.106C50.7365 173.065 55.7033 173.544 60.9812 173.476Z" fill="white"/>
<path d="M60.9813 179.425C56.0533 180.375 50.9407 180.463 45.9641 179.758C45.517 179.699 45.0796 179.621 44.6325 179.553C43.0385 179.269 41.4736 178.917 39.9087 178.476C39.5685 178.369 39.2186 178.281 38.8686 178.163C37.1774 177.645 35.5153 177.028 33.9018 176.314C33.6102 176.186 33.3186 176.059 33.0465 175.932C31.5205 175.228 30.043 174.425 28.6045 173.544C29.8972 174.083 31.1803 174.64 32.4827 175.11C32.6674 175.179 32.8521 175.257 33.0367 175.316C33.3283 175.433 33.6199 175.531 33.9115 175.648C35.5347 176.235 37.1871 176.754 38.8492 177.194C39.2088 177.292 39.5685 177.38 39.9378 177.478C41.493 177.87 43.0482 178.202 44.6228 178.476C45.0796 178.564 45.5365 178.633 45.9933 178.701C50.9407 179.474 55.9756 179.699 60.991 179.416L60.9813 179.425Z" fill="white"/>
<path d="M13.7331 65.083C13.3637 65.1906 12.8875 65.3668 12.3626 65.6799C11.828 66.0028 11.4392 66.3551 11.1768 66.6389C12.1196 67.1184 13.0624 67.6076 14.0052 68.0871C14.0733 67.7251 14.1219 67.2456 14.083 66.6976C14.0344 66.0224 13.8789 65.4744 13.7331 65.0928V65.083Z" fill="white"/>
<path d="M13.9079 68.5765L10.8073 66.9912C10.3796 67.4609 9.28128 68.8211 9.10632 70.8565C9.00912 72.0307 9.25212 72.9897 9.45623 73.567C10.0394 73.3811 11.1086 72.9603 12.0903 71.972C13.3928 70.6705 13.7816 69.1734 13.8982 68.5765H13.9079ZM11.5071 71.3751C11.0114 71.8644 10.4865 72.2068 10.0103 72.4417C9.91307 71.9426 9.89363 71.4338 9.93251 70.925C10.0394 69.6626 10.5643 68.6743 11.0309 68.0382L12.9359 69.0168C12.7221 69.692 12.3041 70.5825 11.5071 71.3849V71.3751Z" fill="white"/>
<path d="M8.68838 70.6509C8.68838 70.6509 8.51342 71.3848 8.6009 72.1089C8.63006 72.3731 8.68838 72.5786 8.72726 72.696C8.49398 72.6765 8.17323 72.6667 7.80388 72.7254C7.3762 72.7939 7.03601 72.9309 6.80273 73.0483C6.97769 72.471 7.22068 72.0796 7.41508 71.8349C7.91079 71.1989 8.68838 70.6411 8.68838 70.6411V70.6509Z" fill="white"/>
<path d="M12.2458 72.4712C12.2458 72.4712 11.7598 73.0485 11.128 73.4008C10.8948 73.528 10.7004 73.6063 10.5837 73.6454C10.7393 73.8216 10.9337 74.076 11.0989 74.4087C11.2933 74.8001 11.3808 75.1622 11.4294 75.4166C11.789 74.9371 11.9542 74.5066 12.0417 74.2032C12.2653 73.4302 12.2458 72.4712 12.2458 72.4712Z" fill="white"/>
<defs>
<filter id="filter0_d_2051_1488" x="9.42212" y="0" width="48.0847" height="62.2212" filterUnits="userSpaceOnUse" color-interpolation-filters="sRGB">
<feFlood flood-opacity="0" result="BackgroundImageFix"/>
<feColorMatrix in="SourceAlpha" type="matrix" values="0 0 0 0 0 0 0 0 0 0 0 0 0 0 0 0 0 0 127 0" result="hardAlpha"/>
<feOffset dy="4"/>
<feGaussianBlur stdDeviation="2"/>
<feComposite in2="hardAlpha" operator="out"/>
<feColorMatrix type="matrix" values="0 0 0 0 0 0 0 0 0 0 0 0 0 0 0 0 0 0 0.25 0"/>
<feBlend mode="normal" in2="BackgroundImageFix" result="effect1_dropShadow_2051_1488"/>
<feBlend mode="normal" in="SourceGraphic" in2="effect1_dropShadow_2051_1488" result="shape"/>
</filter>
</defs>
</svg>
