<svg width="272" height="41" viewBox="0 0 272 41" fill="none" xmlns="http://www.w3.org/2000/svg">
<path d="M19.43 7.09392V6.94715C19.43 5.66526 18.3802 4.60843 17.1069 4.60843H6.81361C5.54031 4.60843 4.49057 5.66526 4.49057 6.94715V7.09392C4.49057 8.37581 5.54031 9.43264 6.81361 9.43264H15.9503C18.3025 9.43264 20.4117 10.4503 21.8599 12.0551C21.9668 12.1628 22.0446 12.2704 22.1515 12.3878C23.279 13.7774 23.9594 15.5583 23.9594 17.4958C23.9594 21.9482 20.3728 25.559 15.9503 25.559H8.00915C3.58662 25.559 0 21.9482 0 17.4958H4.52945C4.52945 19.4333 6.08462 20.999 8.00915 20.999H15.9503C17.8748 20.999 19.4688 19.4333 19.4688 17.4958C19.4688 15.5583 17.8748 13.9926 15.9503 13.9926H6.81361C4.96684 13.9926 3.29503 13.2587 2.06061 12.0551C1.73013 11.7224 1.44826 11.3604 1.19554 10.9592C0.437393 9.86319 0 8.51281 0 7.05479V6.908C0 3.11126 3.04231 0.00927734 6.81361 0.00927734H17.1069C20.8782 0.00927734 23.9594 3.11126 23.9594 6.908V7.05479L19.43 7.09392Z" fill="white"/>
<path d="M31.2008 6.9085V9.27657H47.5107V13.8366H31.2008V18.651C31.2008 19.9329 32.2505 20.9897 33.5238 20.9897H52.0401V25.5497H33.5238C29.7525 25.5497 26.7102 22.4477 26.7102 18.651V6.89872C26.7102 3.10198 29.7525 0 33.5238 0H52.0401V4.56001H33.5238C32.2505 4.56001 31.2008 5.61683 31.2008 6.89872V6.9085Z" fill="white"/>
<path d="M54.752 25.5497V0.00976562H59.2814V25.5497H54.752Z" fill="white"/>
<path d="M76.2812 10.2649L87.2647 25.5497H81.6855L72.9182 13.3669L66.5031 19.2381V25.5497H61.9736V0.00976562H66.5031V13.0733L70.2355 9.63862L73.6083 6.53665L80.6746 0.00976562H87.3813L76.291 10.2649H76.2812Z" fill="white"/>
<path d="M109.805 12.7797C109.805 19.8252 104.119 25.5497 97.1207 25.5497C90.1224 25.5497 84.4363 19.8252 84.4363 12.7797C84.4363 5.73424 90.1224 0.00976562 97.1207 0.00976562C104.119 0.00976562 109.805 5.73424 109.805 12.7797ZM105.276 12.7797C105.276 8.25887 101.611 4.56977 97.1207 4.56977C92.6301 4.56977 88.9657 8.25887 88.9657 12.7797C88.9657 17.3006 92.6301 20.9897 97.1207 20.9897C101.611 20.9897 105.276 17.3006 105.276 12.7797Z" fill="white"/>
<path d="M153.758 0.00976562V25.5497H149.229V9.27655L144.767 12.7112L141.074 15.5979L137.38 12.7112L132.919 9.27655V25.5497H128.389V0.00976562L132.919 3.51295L141.074 9.82455L149.229 3.51295L153.758 0.00976562Z" fill="white"/>
<path d="M181.878 12.7797C181.878 19.8252 176.191 25.5497 169.193 25.5497C162.195 25.5497 156.509 19.8252 156.509 12.7797C156.509 5.73424 162.195 0.00976562 169.193 0.00976562C176.191 0.00976562 181.878 5.73424 181.878 12.7797ZM177.348 12.7797C177.348 8.25887 173.684 4.56977 169.193 4.56977C164.703 4.56977 161.038 8.25887 161.038 12.7797C161.038 17.3006 164.703 20.9897 169.193 20.9897C173.684 20.9897 177.348 17.3006 177.348 12.7797Z" fill="white"/>
<path d="M207.567 0.0488281V4.60883H197.167V25.5888H192.638V4.60883H182.237V0.0488281H207.567Z" fill="white"/>
<path d="M211.222 25.5497V0.00976562H215.751V25.5497H211.222Z" fill="white"/>
<path d="M243.881 12.7797C243.881 19.8252 238.194 25.5497 231.196 25.5497C224.198 25.5497 218.512 19.8252 218.512 12.7797C218.512 5.73424 224.198 0.00976562 231.196 0.00976562C238.194 0.00976562 243.881 5.73424 243.881 12.7797ZM239.351 12.7797C239.351 8.25887 235.687 4.56977 231.196 4.56977C226.706 4.56977 223.041 8.25887 223.041 12.7797C223.041 17.3006 226.706 20.9897 231.196 20.9897C235.687 20.9897 239.351 17.3006 239.351 12.7797Z" fill="white"/>
<path d="M272 0.0489156V25.5889L267.471 22.0857L251.161 9.42334V25.5889H246.631V0.117406L251.161 3.62059L267.471 16.2829V0.00976562L272 0.0489156Z" fill="white"/>
<path d="M57.6824 40.1055C57.1965 40.1055 56.7396 40.0272 56.3022 39.8804C55.8648 39.7336 55.5149 39.5379 55.2622 39.303L55.5927 38.5985C55.8357 38.8138 56.137 38.9899 56.5161 39.1269C56.8854 39.2639 57.2742 39.3324 57.6824 39.3324C58.0518 39.3324 58.3434 39.2933 58.5767 39.2052C58.8002 39.1171 58.9752 38.9997 59.0821 38.8529C59.189 38.7061 59.2473 38.5398 59.2473 38.3539C59.2473 38.1386 59.1793 37.9624 59.0335 37.8254C58.8877 37.6884 58.7128 37.5808 58.4795 37.5025C58.2559 37.4242 58.0032 37.346 57.731 37.2872C57.4589 37.2285 57.1867 37.16 56.9146 37.072C56.6424 36.9839 56.3897 36.886 56.1662 36.7588C55.9426 36.6316 55.7579 36.4653 55.6218 36.25C55.4858 36.0347 55.4177 35.7607 55.4177 35.4182C55.4177 35.0757 55.5052 34.792 55.6704 34.518C55.8454 34.244 56.1078 34.0189 56.4675 33.8526C56.8271 33.6862 57.2839 33.5981 57.838 33.5981C58.2073 33.5981 58.567 33.6471 58.9266 33.7449C59.2862 33.8428 59.5973 33.9798 59.8694 34.1657L59.5681 34.8898C59.2959 34.7039 59.0141 34.5767 58.7128 34.4984C58.4114 34.4201 58.1198 34.3712 57.838 34.3712C57.4783 34.3712 57.1867 34.4201 56.9632 34.5082C56.7396 34.5963 56.5647 34.7235 56.4675 34.8703C56.3606 35.017 56.312 35.1932 56.312 35.3791C56.312 35.6042 56.38 35.7803 56.5258 35.9173C56.6716 36.0543 56.8465 36.1521 57.0798 36.2304C57.3034 36.3087 57.5561 36.3772 57.8282 36.4457C58.1004 36.5142 58.3726 36.5827 58.6447 36.661C58.9169 36.7393 59.1696 36.8469 59.3931 36.9741C59.6167 37.1013 59.8014 37.2677 59.9375 37.483C60.0735 37.6982 60.1416 37.9722 60.1416 38.3049C60.1416 38.6376 60.0541 38.9214 59.8791 39.1954C59.7042 39.4694 59.432 39.6945 59.0724 39.8608C58.7128 40.0272 58.2462 40.1152 57.6922 40.1152L57.6824 40.1055Z" fill="white"/>
<path d="M65.8666 40.1058C65.0404 40.1058 64.3795 39.8709 63.9129 39.3914C63.4464 38.9119 63.2034 38.2172 63.2034 37.2974V33.6865H64.1073V37.268C64.1073 37.9726 64.2628 38.4912 64.5739 38.8239C64.8849 39.1468 65.3223 39.3132 65.886 39.3132C66.4498 39.3132 66.8969 39.1468 67.2079 38.8239C67.519 38.501 67.6745 37.9823 67.6745 37.268V33.6865H68.5493V37.2974C68.5493 38.2172 68.316 38.9217 67.8397 39.3914C67.3635 39.8709 66.7122 40.1058 65.8763 40.1058H65.8666Z" fill="white"/>
<path d="M75.0128 40.106C74.5268 40.106 74.0894 40.0277 73.6812 39.8613C73.273 39.7048 72.9231 39.4699 72.6217 39.1763C72.3204 38.8828 72.0871 38.5403 71.9219 38.1489C71.7567 37.7575 71.6692 37.3269 71.6692 36.8474C71.6692 36.3679 71.7567 35.9374 71.9219 35.546C72.0871 35.1545 72.3204 34.812 72.6217 34.5185C72.9231 34.2249 73.273 33.9999 73.6812 33.8335C74.0894 33.6672 74.5268 33.5889 75.0128 33.5889C75.4988 33.5889 75.9459 33.6769 76.3639 33.8433C76.7721 34.0096 77.122 34.2543 77.4136 34.587L76.8304 35.1545C76.5874 34.9001 76.3153 34.7142 76.014 34.587C75.7126 34.4598 75.3919 34.4011 75.0517 34.4011C74.7115 34.4011 74.3713 34.4598 74.0603 34.587C73.759 34.7044 73.4965 34.8805 73.273 35.0958C73.0494 35.3111 72.8745 35.5753 72.7578 35.8689C72.6315 36.1722 72.5731 36.4951 72.5731 36.8474C72.5731 37.1997 72.6315 37.5226 72.7578 37.8259C72.8842 38.1293 73.0494 38.3837 73.273 38.599C73.4965 38.8143 73.759 38.9904 74.0603 39.1078C74.3616 39.2253 74.6921 39.2938 75.0517 39.2938C75.4113 39.2938 75.7126 39.235 76.014 39.1078C76.3153 38.9806 76.5874 38.7947 76.8304 38.5305L77.4136 39.0981C77.122 39.421 76.7721 39.6754 76.3639 39.8417C75.9556 40.0081 75.4988 40.0962 75.0031 40.0962L75.0128 40.106Z" fill="white"/>
<path d="M83.2067 40.106C82.7207 40.106 82.2833 40.0277 81.875 39.8613C81.4668 39.7048 81.1169 39.4699 80.8156 39.1763C80.5143 38.8828 80.281 38.5403 80.1158 38.1489C79.9505 37.7575 79.863 37.3269 79.863 36.8474C79.863 36.3679 79.9505 35.9374 80.1158 35.546C80.281 35.1545 80.5143 34.812 80.8156 34.5185C81.1169 34.2249 81.4668 33.9999 81.875 33.8335C82.2833 33.6672 82.7207 33.5889 83.2067 33.5889C83.6927 33.5889 84.1398 33.6769 84.5577 33.8433C84.966 34.0096 85.3159 34.2543 85.6075 34.587L85.0243 35.1545C84.7813 34.9001 84.5091 34.7142 84.2078 34.587C83.9065 34.4598 83.5857 34.4011 83.2455 34.4011C82.9054 34.4011 82.5652 34.4598 82.2541 34.587C81.9528 34.7044 81.6904 34.8805 81.4668 35.0958C81.2433 35.3111 81.0683 35.5753 80.9517 35.8689C80.8253 36.1722 80.767 36.4951 80.767 36.8474C80.767 37.1997 80.8253 37.5226 80.9517 37.8259C81.078 38.1293 81.2433 38.3837 81.4668 38.599C81.6904 38.8143 81.9528 38.9904 82.2541 39.1078C82.5554 39.2253 82.8859 39.2938 83.2455 39.2938C83.6052 39.2938 83.9065 39.235 84.2078 39.1078C84.5091 38.9806 84.7813 38.7947 85.0243 38.5305L85.6075 39.0981C85.3159 39.421 84.966 39.6754 84.5577 39.8417C84.1495 40.0081 83.6927 40.0962 83.1969 40.0962L83.2067 40.106Z" fill="white"/>
<path d="M89.6122 39.2447H93.296V40.0373H88.7083V33.6768H93.1697V34.4694H89.6122V39.2447ZM89.5247 36.4167H92.7711V37.1897H89.5247V36.4167Z" fill="white"/>
<path d="M98.3988 40.1059C97.9128 40.1059 97.4559 40.0276 97.0185 39.8809C96.5811 39.7341 96.2312 39.5384 95.9785 39.3035L96.309 38.599C96.552 38.8143 96.8533 38.9904 97.2324 39.1274C97.6017 39.2644 97.9905 39.3329 98.3988 39.3329C98.7681 39.3329 99.0597 39.2937 99.293 39.2057C99.5165 39.1176 99.6915 39.0002 99.7984 38.8534C99.9053 38.7066 99.9636 38.5403 99.9636 38.3543C99.9636 38.1391 99.8956 37.9629 99.7498 37.8259C99.604 37.6889 99.4291 37.5813 99.1958 37.503C98.9722 37.4247 98.7195 37.3465 98.4474 37.2877C98.1752 37.229 97.903 37.1605 97.6309 37.0725C97.3587 36.9844 97.106 36.8865 96.8825 36.7593C96.6589 36.6321 96.4742 36.4658 96.3381 36.2505C96.2021 36.0352 96.134 35.7612 96.134 35.4187C96.134 35.0762 96.2215 34.7925 96.3867 34.5185C96.5617 34.2445 96.8241 34.0194 97.1838 33.853C97.5434 33.6867 98.0002 33.5986 98.5543 33.5986C98.9236 33.5986 99.2833 33.6476 99.6429 33.7454C100.003 33.8433 100.314 33.9803 100.586 34.1662L100.284 34.8903C100.012 34.7044 99.7304 34.5772 99.4291 34.4989C99.1277 34.4206 98.8362 34.3717 98.5543 34.3717C98.1946 34.3717 97.903 34.4206 97.6795 34.5087C97.4559 34.5968 97.281 34.724 97.1838 34.8707C97.0769 35.0175 97.0283 35.1937 97.0283 35.3796C97.0283 35.6047 97.0963 35.7808 97.2421 35.9178C97.3879 36.0548 97.5628 36.1526 97.7961 36.2309C98.0197 36.3092 98.2724 36.3777 98.5446 36.4462C98.8167 36.5147 99.0889 36.5832 99.361 36.6615C99.6332 36.7397 99.8859 36.8474 100.109 36.9746C100.333 37.1018 100.518 37.2682 100.654 37.4835C100.79 37.6987 100.858 37.9727 100.858 38.3054C100.858 38.6381 100.77 38.9219 100.595 39.1959C100.42 39.4699 100.148 39.695 99.7887 39.8613C99.4291 40.0277 98.9625 40.1157 98.4085 40.1157L98.3988 40.1059Z" fill="white"/>
<path d="M105.805 40.1059C105.32 40.1059 104.863 40.0276 104.425 39.8809C103.988 39.7341 103.638 39.5384 103.385 39.3035L103.716 38.599C103.959 38.8143 104.26 38.9904 104.639 39.1274C105.008 39.2644 105.397 39.3329 105.805 39.3329C106.175 39.3329 106.466 39.2937 106.7 39.2057C106.923 39.1176 107.098 39.0002 107.205 38.8534C107.312 38.7066 107.37 38.5403 107.37 38.3543C107.37 38.1391 107.302 37.9629 107.157 37.8259C107.011 37.6889 106.836 37.5813 106.603 37.503C106.379 37.4247 106.126 37.3465 105.854 37.2877C105.582 37.229 105.31 37.1605 105.038 37.0725C104.765 36.9844 104.513 36.8865 104.289 36.7593C104.066 36.6321 103.881 36.4658 103.745 36.2505C103.609 36.0352 103.541 35.7612 103.541 35.4187C103.541 35.0762 103.628 34.7925 103.793 34.5185C103.968 34.2445 104.231 34.0194 104.591 33.853C104.95 33.6867 105.407 33.5986 105.961 33.5986C106.33 33.5986 106.69 33.6476 107.05 33.7454C107.409 33.8433 107.72 33.9803 107.992 34.1662L107.691 34.8903C107.419 34.7044 107.137 34.5772 106.836 34.4989C106.534 34.4206 106.243 34.3717 105.961 34.3717C105.601 34.3717 105.31 34.4206 105.086 34.5087C104.863 34.5968 104.688 34.724 104.591 34.8707C104.484 35.0175 104.435 35.1937 104.435 35.3796C104.435 35.6047 104.503 35.7808 104.649 35.9178C104.795 36.0548 104.97 36.1526 105.203 36.2309C105.426 36.3092 105.679 36.3777 105.951 36.4462C106.223 36.5147 106.496 36.5832 106.768 36.6615C107.04 36.7397 107.293 36.8474 107.516 36.9746C107.74 37.1018 107.924 37.2682 108.061 37.4835C108.197 37.6987 108.265 37.9727 108.265 38.3054C108.265 38.6381 108.177 38.9219 108.002 39.1959C107.827 39.4699 107.555 39.695 107.195 39.8613C106.836 40.0277 106.369 40.1157 105.815 40.1157L105.805 40.1059Z" fill="white"/>
<path d="M115.603 40.0373V33.6768H116.507V40.0373H115.603Z" fill="white"/>
<path d="M120.21 40.0373V33.6768H120.949L125.128 38.9022H124.74V33.6768H125.644V40.0373H124.905L120.725 34.8119H121.114V40.0373H120.21Z" fill="white"/>
<path d="M134.469 39.2447H138.153V40.0373H133.565V33.6768H138.027V34.4694H134.469V39.2447ZM134.391 36.4167H137.638V37.1897H134.391V36.4167Z" fill="white"/>
<path d="M143.159 40.0373L140.379 33.6768H141.351L143.907 39.548H143.343L145.919 33.6768H146.823L144.053 40.0373H143.159Z" fill="white"/>
<path d="M150.332 39.2447H154.016V40.0373H149.428V33.6768H153.889V34.4694H150.332V39.2447ZM150.244 36.4167H153.491V37.1897H150.244V36.4167Z" fill="white"/>
<path d="M157.272 40.0373V33.6768H159.731C160.285 33.6768 160.752 33.7648 161.15 33.941C161.539 34.1171 161.84 34.3715 162.054 34.7042C162.268 35.0369 162.375 35.4381 162.375 35.8981C162.375 36.358 162.268 36.7494 162.054 37.0821C161.84 37.4148 161.539 37.6692 161.15 37.8454C160.761 38.0215 160.285 38.1095 159.731 38.1095H157.768L158.176 37.6888V40.0373H157.272ZM158.176 37.7768L157.768 37.3267H159.712C160.285 37.3267 160.723 37.1995 161.024 36.9451C161.325 36.6907 161.471 36.3384 161.471 35.8883C161.471 35.4381 161.325 35.0859 161.024 34.8314C160.723 34.5868 160.285 34.4596 159.712 34.4596H157.768L158.176 34.0095V37.7671V37.7768ZM161.5 40.0373L159.896 37.7279H160.859L162.482 40.0373H161.5Z" fill="white"/>
<path d="M167.079 40.0373V37.6007L167.283 38.1683L164.572 33.6768H165.534L167.818 37.4637H167.293L169.587 33.6768H170.481L167.779 38.1683L167.973 37.6007V40.0373H167.079Z" fill="white"/>
<path d="M178.325 40.0373H177.421V33.6768H181.883V34.4694H178.325V40.0373ZM178.238 36.6809H181.494V37.4637H178.238V36.6809Z" fill="white"/>
<path d="M184.954 40.0373V33.6768H187.413C187.967 33.6768 188.434 33.7648 188.832 33.941C189.221 34.1171 189.522 34.3715 189.736 34.7042C189.95 35.0369 190.057 35.4381 190.057 35.8981C190.057 36.358 189.95 36.7494 189.736 37.0821C189.522 37.4148 189.221 37.6692 188.832 37.8454C188.444 38.0215 187.967 38.1095 187.413 38.1095H185.45L185.858 37.6888V40.0373H184.954ZM185.858 37.7768L185.45 37.3267H187.394C187.967 37.3267 188.405 37.1995 188.706 36.9451C189.007 36.6907 189.153 36.3384 189.153 35.8883C189.153 35.4381 189.007 35.0859 188.706 34.8314C188.405 34.5868 187.967 34.4596 187.394 34.4596H185.45L185.858 34.0095V37.7671V37.7768ZM189.182 40.0373L187.578 37.7279H188.541L190.164 40.0373H189.182Z" fill="white"/>
<path d="M192.37 40.0373L195.228 33.6768H196.122L198.989 40.0373H198.037L195.481 34.1856H195.84L193.284 40.0373H192.351H192.37ZM193.585 38.4423L193.828 37.7181H197.386L197.648 38.4423H193.585Z" fill="white"/>
<path d="M201.73 40.0373V33.6768H202.469L205.298 38.4814H204.899L207.698 33.6768H208.437V40.0373H207.582V35.0467H207.776L205.288 39.2642H204.87L202.362 35.0467H202.586V40.0373H201.721H201.73Z" fill="white"/>
<path d="M213.054 39.2447H216.738V40.0373H212.15V33.6768H216.612V34.4694H213.054V39.2447ZM212.976 36.4167H216.223V37.1897H212.976V36.4167Z" fill="white"/>
</svg>
