<svg version="1.0" xmlns="http://www.w3.org/2000/svg" width="545.333" height="546.667" viewBox="0 0 409 410"><g fill="#fff" stroke="#fff" stroke-width="3" fill-rule="evenodd"><path d="M212 23.1c0 .3 4.4 10 9.9 21.5 5.4 11.5 11.4 24.3 13.3 28.4l3.5 7.5 8.9 3.4c4.9 1.8 10.3 4.2 12.1 5.2 2.6 1.5 3.8 1.6 7 .7 4.4-1.2 13.3-.4 17.1 1.6 3.7 1.9 8.9 7.5 10.1 10.9.6 1.6 1.1 4.6 1.1 6.8v3.9h67.1l-3.7-5.8c-14-22-31.5-39.2-56.4-55.5-18.6-12-42.2-21.5-64.9-26.2-8.9-1.8-25.1-3.4-25.1-2.4zm27.2 8.4c25.9 5.1 50 16 72.3 32.6 13.8 10.2 42.5 40.5 40.9 43.1-.3.4-4.1.8-8.4.8h-7.9l-4.8-5.3c-18.2-19.9-34.8-32.5-56.8-43.2-13.7-6.6-23.5-10.2-37.4-13.4-4.6-1.1-8.5-2.1-8.6-2.3-.5-.6-6.5-14.6-6.5-15.2 0-.4 1-.4 2.3-.1 1.2.2 7.9 1.6 14.9 3zm-60.7-7c-52.1 9.7-93.9 35-123.7 74.9-3.3 4.4-6.6 9.2-7.4 10.8l-1.5 2.8h66.8l.5-5c.6-6.1 4.3-12 10-15.7 3.8-2.6 5-2.8 13.7-2.9 8.1 0 10.5-.5 15.1-2.6 3-1.4 8.1-3.4 11.4-4.4 4.1-1.3 6.1-2.5 6.7-4.1.8-2.2 23.3-50.1 25.1-53.6.8-1.5.3-1.7-4.4-1.6-2.9.1-8.4.7-12.3 1.4zm6.9 6.7c-.4 1.3-1.7 4.6-3 7.5-2 4.7-2.7 5.3-6.6 6.3-12.1 3-28.6 8.4-36.6 11.8-19.5 8.4-39.7 22.7-56.6 39.9L71.5 108h-7.7c-4.3 0-7.8-.3-7.8-.8 0-1.2 2.9-5.1 10.6-14.2 28.8-34 63.8-54.3 107.9-62.5 10.8-2 11.8-1.9 10.9.7zm6 36.3-11.8 24.4-11.1 3.6c-14.2 4.6-14.1 4.5-12.6 8.5 1.7 4.9 1.3 12-.9 16.9-1.1 2.4-2 4.5-2 4.8 0 .4 16.9-.4 25.7-1.3 4.4-.5 5.2-.9 5.7-3 .4-1.4 2.6-4.5 5-6.8 10.3-10.4 26.6-7.3 33.6 6.4l1.9 3.7 14.8.6c8.1.3 14.9.4 15.1.3.1-.2-.7-2.4-1.9-5-2-4.6-2.2-9.2-.8-17.1.3-1.6-.8-2.6-5.4-4.8-3.1-1.5-8.7-3.5-12.4-4.4l-6.6-1.7-3-6.5c-5.2-11.7-20.5-43.1-21-43.1-.2 0-5.7 11-12.3 24.5zm18.5 1.2c2.8 5.4 6.8 13.1 9 17l4 7.3h-18.4c-10.2 0-18.5-.1-18.5-.3s13.5-25.7 16.4-31c.8-1.5 1.7-2.7 2-2.7s2.8 4.4 5.5 9.7zm-80.6 36.9c-2.1 2.1-2.4 3.2-1.9 6.2.6 4.3 3.7 7.2 7.6 7.2 4.2 0 5.9-.9 7.5-4.1 2.1-4 1.9-6.6-1-9.4-3.3-3.4-8.7-3.4-12.2.1zM267 105c-4.8 4.8-.7 14 6.3 14 6.9 0 10.5-9 5.4-13.8-3-2.9-8.9-3-11.7-.2z"/><path d="M198.5 125.5c-3 2.9-3.1 4.5-.4 7.9 4.1 5.2 11.9 2.5 11.9-4.2 0-5.9-7.1-8.2-11.5-3.7zM36 131.6c-17.8 42.7-19.9 89.8-5.8 131.7 3.5 10.5 9.3 23.7 10.5 23.7.4 0 1.5-1.2 2.4-2.8.9-1.5 7.1-11.4 13.8-22.1C69.2 242.6 78 226.9 78 224.7c0-.7-2-2.4-4.4-3.8-8.1-4.9-11.9-17.5-8-26.7 1.8-4.4 5.8-8.8 9.7-10.9 1.6-.8 2.7-2 2.4-2.6-.3-.7-8.5-13-18.3-27.3-9.9-14.4-18.4-27-19-28-.9-1.5-1.5-.6-4.4 6.2zm10.6 10.3 4.6 6.9-2.5 7.8c-10.6 33.5-10.9 62.1-1.2 96.2l3.5 12.4-4.2 5.9c-2.3 3.3-4.6 5.8-5.2 5.6-2.6-.9-10.7-26.4-13.3-42-2-12.4-2.3-41.4-.4-53.7 2.6-17.5 10.8-46 13.2-46 .5 0 2.9 3.1 5.5 6.9zm311.6-2.6c-5.6 8.3-14.4 21.2-19.5 28.6-6.3 9.2-8.8 13.5-7.9 13.9 2.9 1 8.6 6.9 10.3 10.7 2.5 5.4 2.5 14.5 0 19.4-1.8 3.5-8.2 10.1-9.9 10.1-.4 0-1.3.4-2 .9-1.1.6-.8 2 1.6 6.8 8.1 16 35.9 59.1 37.1 57.7 1.7-2 8.1-17.5 10.9-26.5 13.3-41.7 11.4-85.8-5.4-126-2.5-6-4.7-10.9-4.8-10.9 0 0-4.7 6.9-10.4 15.3zm12.8 5c12.4 31.9 14.5 72.5 5.5 106.3-3.1 11.7-8.9 26.9-10.3 26.9-.6 0-2.4-1.8-4-4-5.6-7.8-5.6-7.3-1.8-19.9 4.9-15.8 7-30.9 7-49.6 0-17.6-1.6-28-6.9-45.3l-3.3-11.2 4.4-6.3c2.5-3.4 4.9-6 5.4-5.7s2.3 4.2 4 8.8zM59 127.5c0 .3 2.2 3.6 4.9 7.3 2.6 3.7 8.4 12 12.7 18.5l7.8 11.9 3.3-7.1c2.7-6.1 11.4-21.6 16.1-28.9l1.4-2.2H82.1c-12.7 0-23.1.2-23.1.5zm249.3 8.3c2.9 4.8 7.2 13.2 9.7 18.5s4.7 9.7 5 9.7c.3-.1 1.9-2.4 3.7-5.3 1.8-3 7.3-11.1 12.3-18.1 4.9-7 9-12.9 9-13.2 0-.2-10.1-.4-22.4-.4h-22.5zm-25.8-5.2c-2.7 1.5-6 2.5-9.8 2.7l-5.8.3-10.5 19c-5.8 10.4-11.2 19.9-12 21.1-1.3 2-1.1 2.6 1.6 6.5 1.7 2.4 4.1 7 5.5 10.3l2.4 6 22.4.3 22.4.2 1.8-4c2-4.4 7.9-10.4 11.4-11.5 2.6-.8 2.5-1.2-3.1-14-5-11.5-19.6-37.7-21.7-39-.4-.2-2.4.8-4.6 2.1zM115 138.7c-6.6 10.5-19.8 36.4-20.2 39.9-.2 1.6 1 3 4.7 5.5 3.2 2.3 5.7 5 7.3 8.1l2.5 4.8h45.5l.7-3.3c.9-3.7 3.9-9.9 6.8-13.9l2-2.7-11.6-20.3c-6.4-11.2-11.9-21.1-12.2-22.1-.6-1.3-1.7-1.9-5.4-1.7-2.7 0-6.3-.8-8.6-2-2.2-1.1-4.2-2-4.6-2s-3.5 4.4-6.9 9.7z"/><path d="M170.6 138.1c-6.6.5-12.1 1.1-12.3 1.3s3 6.1 7.1 13.2c4.2 7 7.7 13.2 7.8 13.6.2.5 3-.6 6.2-2.6 6.1-3.7 16.6-6.6 23.9-6.6 6.3 0 19.2 3.5 25.1 6.9l5.1 2.8 7.7-13.6 7.7-13.6-4.2-.6c-2.3-.3-8.1-.9-12.9-1.3l-8.6-.6-2.1 3.4c-3 4.8-9.6 8.8-15.4 9.4-6.8.7-12.7-1.9-18.1-7.9-2.4-2.7-4.6-4.8-4.8-4.8-.1.1-5.7.6-12.2 1zm25.1 33.9c-10.1 2.6-20.6 11.3-25 20.8-1.8 3.8-2.2 6.6-2.2 14.2 0 8.2.4 10.3 2.7 15.2 11.4 24.4 45.6 28.2 61.4 6.7 2-2.8 4.5-7.8 5.6-11.2 5.5-17.2-4.1-37.4-20.7-43.6-6.4-2.4-16.5-3.4-21.8-2.1zm120.6 22.9c-3.9 2.4-5.1 6.7-2.9 10.9 3.9 7.5 15.7 4.5 15.6-4-.1-4-1.7-6.4-5.4-7.8-3.6-1.3-3.6-1.3-7.3.9zm-235.8 1.6c-5.5 5.4-1.2 14.6 6.8 14.5 2.6-.1 5-1.7 6.5-4.7 3.1-5.8-.7-12.3-7.3-12.3-2.5 0-4.4.8-6 2.5zm24.8 18.3c-2.1 3.4-4.4 5.5-7.6 7.1l-4.6 2.2 1.3 4.2c6 19.1 19.3 41.8 33.1 56.5l7.5 8 4.2-1.5c2.7-.9 6.1-1.3 8.9-1l4.6.6 11.7-20.6 11.7-20.6-4.9-4.3c-8.7-7.7-15-19.2-16.7-30.9l-.7-4.5h-45.5zm36 12.8c6.5 2.2 12.2 8.8 13.7 15.7 3.3 16-13.6 30.5-28.3 24.4-12.1-5.1-16.9-17.9-11.1-29.6 4.9-9.8 15.3-14.1 25.7-10.5z"/><path d="M129.1 242.6c-1.2 1.5-2.1 3.8-2.1 5.1 0 3.2 4.2 7.3 7.5 7.3 1.4 0 3.7-1.1 5-2.5 1.4-1.3 2.5-3.6 2.5-5s-1.1-3.7-2.5-5c-3.3-3.4-7.7-3.3-10.4.1zM254 212.8c0 8.3-7.4 22.4-16.1 30.7l-5.6 5.3 11.5 20.6 11.4 20.6h4.3c2.3 0 6.2.7 8.5 1.5 3.9 1.4 4.4 1.4 7.1-.5 6.9-5 21.5-24.2 27.9-36.9 3.6-7.3 10.7-23.9 11.5-27.2.6-2.4.2-2.9-4-4.9-3.2-1.6-5.6-3.8-7.8-7.1l-3.2-4.9H254zm30.3 16.4c9.4 5.3 13.4 17.6 8.7 27.2-2.6 5.5-6.4 8.8-12.6 11.2-4 1.5-5.4 1.6-10.2.6-10.4-2.2-17.2-10.5-17.2-21 0-16.1 17-25.9 31.3-18z"/><path d="M269 242c-3 3-2.7 8.3.6 10.9 3 2.4 4.3 2.6 7.8 1 3.3-1.5 5-5.7 3.7-9.2-1.9-4.8-8.5-6.3-12.1-2.7zM79.2 253.9c-2.9 5.4-8.2 14.3-11.7 19.7l-6.4 9.9 22.6.3c12.4.1 22.8 0 23-.2.3-.3-.6-2-2-3.8-3.5-4.7-13.2-21.8-16.7-29.4-1.6-3.5-3-6.4-3.2-6.4s-2.7 4.5-5.6 9.9zm240-2.1c-1.8 4.3-6.3 13.2-10 19.8l-6.9 11.9 10.8.3c5.9.1 16 .1 22.3 0l11.5-.3-7.5-11.5c-4.1-6.3-9.6-15.2-12-19.8-2.5-4.5-4.7-8.2-4.8-8.2s-1.6 3.5-3.4 7.8zm-142.4 25.1-11.8 21 1.9 3.3c1.1 1.8 2.2 4.7 2.6 6.5.6 3.1.7 3.1 8.3 3.9 10.1 1 39.4 1.1 50.3 0l8.6-.8 1.3-4.1c.7-2.3 2.1-5.4 3.2-7l2-2.7-10.4-18.5c-13.8-24.8-12.1-22.9-19.6-21.5-5.8 1.2-15.8.9-22.2-.5-2.4-.5-3.2.7-14.2 20.4zM46 298.2c0 .4 2.5 4.5 5.6 9 29.2 43 72.3 70.8 122.9 79.2 14.4 2.4 24.5 3 24.5 1.6 0-1.3-28.1-59-30.6-62.8l-1.5-2.2-3.6 3.6c-4.6 4.6-9.2 6.5-15.9 6.5-12.7 0-22.4-9.4-22.4-21.8 0-1.7.4-4.3.9-5.6.9-2.3.5-2.8-3.2-5.3l-4.2-2.9H82.3c-20 0-36.3.3-36.3.7zM79.5 311c18.7 21.1 42.5 37.9 68 48 4.4 1.8 14.5 4.6 22.4 6.4l14.3 3.3 2.9 6.7c1.6 3.8 2.9 7 2.9 7.2 0 1.1-10.7.1-21.4-2.1-32.8-6.6-61.6-21.3-84.5-43.1C71.2 325.2 56 306.6 56 303.1c0-.7 2.9-1.1 7.8-1.1h7.7zm225-13c-15.6.5-17.3.7-20.2 2.8-3.2 2.2-3.2 2.4-2.7 8.5.5 5.5.2 6.9-2.3 11.7-4 7.8-9.1 11.1-18.1 11.8-8 .5-12.4-1.1-17.9-6.6l-3.4-3.3-4.8 10.3c-2.7 5.7-9.4 19.6-14.9 31.1-5.6 11.4-10.4 21.7-10.8 22.9-.6 2.1-.5 2.1 7.2 1.4 13.2-1.2 33.5-5.3 44.5-9.1 14-4.8 36.3-16.1 47.9-24.3 10.5-7.4 29-24.8 37.4-35.1 7.6-9.3 15.6-21.2 15-22.2-.5-.9-27.5-.9-56.9.1zm48.5 4.7c-.1 2.1-14.6 20-23.5 28.9-28 28.1-62.4 45.4-101.2 50.8-5.4.8-9.9 1.3-10.1 1.1s1.2-3.6 3.1-7.7l3.4-7.4 10.9-2.1c15.5-3.1 25-6.4 39.9-13.8 18.6-9.3 29.5-17.4 47-35.1l15-15.2 7.8-.1c4.2-.1 7.7.2 7.7.6z"/><path d="M142.6 306.1c-2 1.6-2.6 2.9-2.6 5.9 0 6.8 6.9 10.2 12.3 6 3.3-2.6 4.1-6.3 2.3-9.9-2.5-4.6-7.5-5.5-12-2zm111.6-.1c-4.4 4.1-2.1 12.2 3.8 13.5 6 1.3 10.9-4.5 8.9-10.5-1.9-5.2-8.6-6.8-12.7-3zm-52 19.7c-16.1.3-16.3.4-15.6 2.5.3 1.1 4.4 9.7 9 19l8.3 16.9 9.5-19c5.3-10.5 9.6-19.3 9.6-19.6s-1-.4-2.2-.3c-1.3.1-9.6.4-18.6.5z"/></g></svg>