<svg width="54" height="54" viewBox="0 0 54 54" fill="none" xmlns="http://www.w3.org/2000/svg">
<rect width="53.3333" height="53.3333" rx="26.6667" fill="url(#paint0_linear_2051_1570)"/>
<path d="M32.0065 20.1265C31.7692 20.1265 31.5372 20.1969 31.3398 20.3287C31.1425 20.4606 30.9887 20.648 30.8978 20.8673C30.807 21.0866 30.7833 21.3278 30.8296 21.5606C30.8759 21.7934 30.9902 22.0072 31.158 22.175C31.3258 22.3429 31.5396 22.4571 31.7724 22.5034C32.0052 22.5497 32.2465 22.526 32.4657 22.4352C32.685 22.3443 32.8724 22.1905 33.0043 21.9932C33.1361 21.7958 33.2065 21.5638 33.2065 21.3265C33.2065 21.0082 33.0801 20.703 32.855 20.478C32.63 20.2529 32.3248 20.1265 32.0065 20.1265ZM36.6065 22.5465C36.5871 21.7168 36.4317 20.8959 36.1465 20.1165C35.8922 19.4496 35.4965 18.8458 34.9865 18.3465C34.4913 17.8339 33.8861 17.4407 33.2165 17.1965C32.4392 16.9027 31.6174 16.7437 30.7865 16.7265C29.7265 16.6665 29.3865 16.6665 26.6665 16.6665C23.9465 16.6665 23.6065 16.6665 22.5465 16.7265C21.7157 16.7437 20.8938 16.9027 20.1165 17.1965C19.4482 17.4432 18.8434 17.8361 18.3465 18.3465C17.8339 18.8417 17.4407 19.4469 17.1965 20.1165C16.9027 20.8938 16.7437 21.7157 16.7265 22.5465C16.6665 23.6065 16.6665 23.9465 16.6665 26.6665C16.6665 29.3865 16.6665 29.7265 16.7265 30.7865C16.7437 31.6174 16.9027 32.4392 17.1965 33.2165C17.4407 33.8861 17.8339 34.4913 18.3465 34.9865C18.8434 35.4969 19.4482 35.8899 20.1165 36.1365C20.8938 36.4303 21.7157 36.5893 22.5465 36.6065C23.6065 36.6665 23.9465 36.6665 26.6665 36.6665C29.3865 36.6665 29.7265 36.6665 30.7865 36.6065C31.6174 36.5893 32.4392 36.4303 33.2165 36.1365C33.8861 35.8923 34.4913 35.4991 34.9865 34.9865C35.4987 34.4891 35.8948 33.8847 36.1465 33.2165C36.4317 32.4371 36.5871 31.6162 36.6065 30.7865C36.6065 29.7265 36.6665 29.3865 36.6665 26.6665C36.6665 23.9465 36.6665 23.6065 36.6065 22.5465ZM34.8065 30.6665C34.7992 31.3013 34.6843 31.9302 34.4665 32.5265C34.3068 32.9617 34.0504 33.3549 33.7165 33.6765C33.3922 34.007 32.9997 34.2629 32.5665 34.4265C31.9702 34.6443 31.3413 34.7592 30.7065 34.7665C29.7065 34.8165 29.3365 34.8265 26.7065 34.8265C24.0765 34.8265 23.7065 34.8265 22.7065 34.7665C22.0474 34.7788 21.3911 34.6774 20.7665 34.4665C20.3523 34.2946 19.9779 34.0393 19.6665 33.7165C19.3346 33.3953 19.0813 33.0017 18.9265 32.5665C18.6824 31.9617 18.5469 31.3184 18.5265 30.6665C18.5265 29.6665 18.4665 29.2965 18.4665 26.6665C18.4665 24.0365 18.4665 23.6665 18.5265 22.6665C18.531 22.0176 18.6495 21.3744 18.8765 20.7665C19.0526 20.3444 19.3228 19.9682 19.6665 19.6665C19.9703 19.3227 20.3458 19.0496 20.7665 18.8665C21.3761 18.6465 22.0185 18.5316 22.6665 18.5265C23.6665 18.5265 24.0365 18.4665 26.6665 18.4665C29.2965 18.4665 29.6665 18.4665 30.6665 18.5265C31.3013 18.5338 31.9302 18.6488 32.5265 18.8665C32.9809 19.0352 33.3888 19.3094 33.7165 19.6665C34.0442 19.9737 34.3003 20.3492 34.4665 20.7665C34.6888 21.3754 34.8038 22.0183 34.8065 22.6665C34.8565 23.6665 34.8665 24.0365 34.8665 26.6665C34.8665 29.2965 34.8565 29.6665 34.8065 30.6665ZM26.6665 21.5365C25.6523 21.5385 24.6615 21.841 23.8192 22.4059C22.9769 22.9708 22.3209 23.7727 21.9341 24.7103C21.5474 25.6478 21.4472 26.679 21.6463 27.6734C21.8454 28.6679 22.3347 29.581 23.0526 30.2975C23.7704 31.0139 24.6845 31.5015 25.6794 31.6987C26.6742 31.8958 27.7052 31.7936 28.642 31.405C29.5788 31.0165 30.3794 30.3589 30.9426 29.5155C31.5059 28.6721 31.8065 27.6807 31.8065 26.6665C31.8078 25.9916 31.6757 25.3231 31.4177 24.6995C31.1598 24.0758 30.7811 23.5093 30.3034 23.0326C29.8257 22.5558 29.2585 22.1782 28.6343 21.9214C28.0101 21.6647 27.3414 21.5339 26.6665 21.5365ZM26.6665 29.9965C26.0079 29.9965 25.3641 29.8012 24.8165 29.4353C24.2688 29.0694 23.842 28.5493 23.59 27.9408C23.3379 27.3324 23.272 26.6628 23.4005 26.0169C23.529 25.3709 23.8461 24.7775 24.3118 24.3118C24.7775 23.8461 25.3709 23.529 26.0169 23.4005C26.6628 23.272 27.3324 23.3379 27.9408 23.59C28.5493 23.842 29.0694 24.2688 29.4353 24.8165C29.8012 25.3641 29.9965 26.0079 29.9965 26.6665C29.9965 27.1038 29.9104 27.5368 29.743 27.9408C29.5757 28.3449 29.3304 28.712 29.0212 29.0212C28.712 29.3304 28.3449 29.5757 27.9408 29.743C27.5368 29.9104 27.1038 29.9965 26.6665 29.9965Z" fill="white"/>
<defs>
<linearGradient id="paint0_linear_2051_1570" x1="26.6667" y1="0" x2="26.6667" y2="53.3333" gradientUnits="userSpaceOnUse">
<stop stop-color="#A837FF"/>
<stop offset="1" stop-color="#652199"/>
</linearGradient>
</defs>
</svg>
